<svg id="svg" version="1.1" xmlns="http://www.w3.org/2000/svg" xmlns:xlink="http://www.w3.org/1999/xlink" width="400" height="392" viewBox="0, 0, 400,392"><g id="svgg"><path id="path0" d="M210.196 26.491 C 209.873 26.563,207.535 26.738,205.001 26.879 C 201.684 27.064,200.469 27.263,200.664 27.588 C 200.827 27.860,200.688 27.839,200.313 27.535 C 199.699 27.039,198.814 27.022,198.431 27.499 C 198.270 27.700,192.374 28.259,190.196 28.280 C 188.740 28.294,187.843 28.690,187.837 29.321 C 187.832 29.902,187.777 29.915,187.457 29.412 C 187.149 28.927,186.944 28.910,186.292 29.314 C 185.857 29.583,184.450 29.804,183.166 29.804 C 181.881 29.804,180.720 29.983,180.584 30.202 C 180.449 30.422,180.154 30.487,179.929 30.348 C 179.704 30.209,179.392 30.303,179.235 30.556 C 179.079 30.810,178.172 31.039,177.220 31.066 C 176.269 31.093,175.252 31.297,174.962 31.519 C 174.671 31.742,174.061 31.981,173.606 32.050 C 173.151 32.120,172.683 32.305,172.566 32.461 C 172.379 32.710,170.684 32.925,168.521 32.973 C 168.139 32.982,167.912 33.128,168.018 33.299 C 168.349 33.834,165.536 34.561,161.961 34.864 C 161.488 34.904,161.475 34.979,161.894 35.245 C 162.268 35.482,162.101 35.639,161.306 35.798 C 160.696 35.921,159.667 36.245,159.020 36.519 C 158.373 36.792,157.667 37.030,157.451 37.048 C 157.235 37.065,156.799 37.242,156.482 37.440 C 156.164 37.638,155.402 37.762,154.787 37.715 C 154.172 37.669,153.751 37.766,153.852 37.933 C 154.147 38.420,153.231 39.009,151.965 39.147 C 151.321 39.217,150.571 39.459,150.299 39.685 C 150.027 39.911,149.804 39.955,149.804 39.784 C 149.804 39.612,149.407 39.833,148.922 40.275 C 148.436 40.718,147.373 41.199,146.558 41.344 C 145.743 41.489,145.180 41.776,145.306 41.981 C 145.524 42.332,144.716 42.524,143.621 42.381 C 143.348 42.345,143.172 42.545,143.229 42.825 C 143.286 43.104,143.113 43.289,142.843 43.235 C 142.574 43.181,142.353 43.333,142.353 43.571 C 142.353 43.810,142.091 43.905,141.771 43.782 C 141.428 43.651,141.019 43.876,140.776 44.328 C 140.538 44.774,139.957 45.098,139.398 45.098 C 138.866 45.098,138.431 45.275,138.431 45.490 C 138.431 45.706,138.078 45.882,137.647 45.882 C 137.216 45.882,136.863 46.059,136.863 46.275 C 136.863 46.490,136.730 46.648,136.569 46.624 C 135.976 46.539,134.510 47.160,134.510 47.497 C 134.510 47.687,134.259 47.843,133.953 47.843 C 133.254 47.843,130.986 49.115,130.983 49.510 C 130.982 49.672,130.705 49.804,130.369 49.804 C 130.033 49.804,129.851 49.955,129.965 50.139 C 130.079 50.324,129.737 50.392,129.204 50.290 C 128.421 50.140,128.235 50.263,128.235 50.935 C 128.235 51.595,127.995 51.765,127.059 51.765 C 126.275 51.765,125.882 51.961,125.882 52.353 C 125.882 52.680,125.534 52.941,125.098 52.941 C 124.667 52.941,124.314 53.118,124.314 53.333 C 124.314 53.549,124.049 53.725,123.725 53.725 C 123.402 53.725,123.137 53.899,123.137 54.110 C 123.137 54.322,122.697 54.605,122.160 54.740 C 121.622 54.875,121.278 55.141,121.396 55.331 C 121.513 55.522,121.335 55.572,121.001 55.444 C 120.606 55.292,120.392 55.432,120.392 55.840 C 120.392 56.187,120.135 56.471,119.822 56.471 C 119.508 56.471,118.810 56.912,118.271 57.451 C 117.732 57.990,116.847 58.431,116.305 58.431 C 115.546 58.431,115.377 58.582,115.569 59.084 C 115.738 59.523,115.669 59.644,115.361 59.453 C 115.085 59.283,114.902 59.414,114.902 59.781 C 114.902 60.117,114.637 60.392,114.314 60.392 C 113.990 60.392,113.725 60.657,113.725 60.980 C 113.725 61.346,113.355 61.569,112.745 61.569 C 112.045 61.569,111.765 61.781,111.765 62.310 C 111.765 62.775,111.398 63.144,110.784 63.298 C 110.245 63.434,109.804 63.717,109.804 63.929 C 109.804 64.141,109.451 64.314,109.020 64.314 C 108.588 64.314,108.235 64.490,108.235 64.706 C 108.235 64.922,107.971 65.098,107.647 65.098 C 107.317 65.098,107.059 65.448,107.059 65.895 C 107.059 66.333,106.750 66.808,106.373 66.950 C 105.995 67.093,105.069 67.791,104.314 68.503 C 103.559 69.215,102.809 69.799,102.647 69.801 C 102.485 69.802,102.353 70.027,102.353 70.299 C 102.353 70.572,101.976 70.969,101.515 71.182 C 101.054 71.394,100.712 71.723,100.755 71.912 C 100.799 72.101,100.426 72.469,99.927 72.729 C 99.428 72.989,99.060 73.397,99.110 73.636 C 99.159 73.874,98.850 74.181,98.423 74.316 C 97.996 74.452,97.647 74.845,97.647 75.190 C 97.647 75.535,97.536 75.706,97.399 75.569 C 97.074 75.244,95.686 75.994,95.686 76.495 C 95.686 77.009,92.291 80.392,91.775 80.392 C 91.554 80.392,91.373 80.665,91.373 80.998 C 91.373 81.655,89.677 83.529,89.083 83.529 C 88.654 83.529,87.236 85.551,87.364 85.980 C 87.412 86.142,87.262 86.275,87.031 86.275 C 86.336 86.275,85.420 87.412,85.722 87.901 C 85.899 88.188,85.832 88.251,85.541 88.070 C 85.245 87.888,84.926 88.220,84.658 88.990 C 84.426 89.653,84.080 90.098,83.888 89.979 C 83.696 89.860,83.655 90.066,83.797 90.436 C 83.972 90.893,83.907 91.018,83.596 90.826 C 83.344 90.670,83.137 90.741,83.137 90.984 C 83.137 91.226,82.550 91.987,81.831 92.673 C 81.113 93.360,80.276 94.495,79.971 95.196 C 79.666 95.897,79.195 96.471,78.924 96.471 C 78.653 96.471,78.431 96.919,78.431 97.466 C 78.431 98.294,78.340 98.377,77.892 97.959 C 77.596 97.682,77.423 97.272,77.509 97.049 C 77.595 96.826,77.220 96.606,76.676 96.561 C 76.131 96.516,75.686 96.664,75.686 96.890 C 75.686 97.116,75.880 97.181,76.118 97.035 C 76.430 96.842,76.432 96.987,76.125 97.561 C 75.791 98.184,75.829 98.402,76.300 98.583 C 77.127 98.900,76.867 99.881,75.590 101.265 C 74.997 101.907,74.603 102.579,74.714 102.758 C 74.824 102.937,74.733 103.196,74.510 103.333 C 74.287 103.471,74.223 103.775,74.368 104.009 C 74.515 104.247,74.451 104.323,74.223 104.183 C 73.701 103.860,72.791 104.931,73.127 105.473 C 73.266 105.698,73.094 105.882,72.745 105.882 C 72.396 105.882,72.200 106.027,72.310 106.205 C 72.419 106.382,72.165 106.821,71.745 107.181 C 71.324 107.541,70.980 108.114,70.980 108.456 C 70.980 109.139,71.947 110.275,72.262 109.961 C 72.370 109.852,72.809 110.207,73.237 110.750 C 73.664 111.294,74.124 111.628,74.259 111.492 C 74.394 111.357,74.850 111.644,75.271 112.130 C 75.692 112.616,76.223 112.898,76.450 112.758 C 76.677 112.618,76.863 112.690,76.863 112.918 C 76.863 113.146,77.216 113.333,77.647 113.333 C 78.078 113.333,78.431 113.504,78.431 113.712 C 78.431 113.920,78.806 114.290,79.263 114.535 C 79.740 114.790,79.991 114.812,79.851 114.586 C 79.710 114.357,80.012 114.382,80.568 114.644 C 81.096 114.894,81.614 115.424,81.718 115.824 C 81.823 116.223,82.089 116.438,82.311 116.301 C 82.676 116.075,84.225 116.717,84.706 117.294 C 84.814 117.424,85.323 117.752,85.837 118.023 C 86.559 118.403,86.651 118.591,86.240 118.845 C 85.557 119.267,86.760 119.806,87.636 119.470 C 87.953 119.349,88.470 119.506,88.784 119.821 C 89.099 120.135,89.545 120.392,89.776 120.392 C 90.007 120.392,90.196 120.581,90.196 120.811 C 90.196 121.046,90.528 121.124,90.957 120.988 C 91.485 120.820,91.850 120.995,92.153 121.561 C 92.392 122.009,92.760 122.269,92.971 122.139 C 93.181 122.009,93.304 122.136,93.245 122.422 C 93.176 122.754,93.449 122.898,94.003 122.821 C 94.543 122.747,95.057 123.004,95.372 123.508 C 95.648 123.951,96.179 124.314,96.551 124.314 C 96.923 124.314,97.416 124.665,97.646 125.095 C 97.906 125.582,98.642 125.970,99.596 126.122 C 100.438 126.257,101.473 126.688,101.895 127.081 C 102.317 127.474,102.753 127.705,102.864 127.594 C 102.975 127.483,103.182 127.758,103.324 128.206 C 103.494 128.741,103.915 129.020,104.555 129.020 C 105.090 129.020,105.937 129.461,106.436 130.000 C 106.936 130.539,107.712 130.980,108.160 130.980 C 108.608 130.980,109.239 131.357,109.561 131.816 C 109.896 132.296,110.392 132.558,110.722 132.431 C 111.039 132.309,111.607 132.551,111.985 132.968 C 112.362 133.384,113.007 133.725,113.417 133.725 C 113.887 133.725,114.059 133.895,113.880 134.184 C 113.690 134.493,113.811 134.561,114.249 134.393 C 114.713 134.215,114.902 134.352,114.902 134.865 C 114.902 135.379,115.192 135.588,115.901 135.588 C 116.451 135.588,117.116 135.883,117.379 136.243 C 117.643 136.603,118.240 136.927,118.706 136.962 C 119.172 136.997,119.479 137.145,119.389 137.292 C 119.298 137.438,119.487 137.776,119.808 138.043 C 120.129 138.309,120.392 138.396,120.392 138.235 C 120.392 138.075,120.684 138.185,121.041 138.481 C 121.397 138.777,122.015 138.964,122.413 138.897 C 122.849 138.823,123.137 139.008,123.137 139.361 C 123.137 139.683,123.474 140.054,123.885 140.185 C 124.297 140.315,124.732 140.680,124.853 140.995 C 124.988 141.346,125.602 141.569,126.432 141.569 C 127.462 141.569,127.853 141.765,128.048 142.381 C 128.208 142.886,128.523 143.111,128.879 142.974 C 129.200 142.851,129.347 142.925,129.213 143.142 C 129.079 143.358,129.408 143.529,129.955 143.529 C 130.494 143.529,131.167 143.838,131.448 144.216 C 131.730 144.593,132.225 144.960,132.549 145.032 C 132.873 145.103,133.278 145.412,133.451 145.718 C 133.623 146.024,134.109 146.275,134.529 146.275 C 134.950 146.275,135.294 146.451,135.294 146.667 C 135.294 146.882,135.657 147.059,136.102 147.059 C 136.546 147.059,136.803 147.230,136.674 147.439 C 136.544 147.649,136.931 147.938,137.533 148.082 C 138.135 148.226,138.848 148.517,139.118 148.730 C 139.387 148.942,139.608 148.973,139.608 148.798 C 139.608 148.623,139.952 148.822,140.373 149.240 C 141.700 150.557,142.304 150.980,142.856 150.980 C 143.151 150.980,143.807 151.422,144.314 151.961 C 144.820 152.500,145.645 152.941,146.147 152.941 C 146.648 152.941,147.062 153.162,147.065 153.431 C 147.069 153.758,147.198 153.725,147.451 153.333 C 147.759 152.856,147.832 152.910,147.837 153.616 C 147.842 154.366,148.045 154.480,149.314 154.443 C 151.056 154.393,152.091 153.782,151.293 153.276 C 150.915 153.036,150.960 152.952,151.471 152.947 C 151.848 152.944,152.157 152.757,152.157 152.533 C 152.157 152.308,152.504 151.752,152.928 151.297 C 153.352 150.842,153.606 150.320,153.493 150.137 C 153.380 149.954,153.583 149.804,153.944 149.804 C 154.419 149.804,154.541 149.575,154.386 148.981 C 154.268 148.528,154.268 148.255,154.387 148.374 C 154.671 148.658,155.686 147.634,155.686 147.064 C 155.686 146.820,155.858 146.726,156.067 146.856 C 156.276 146.985,156.560 146.643,156.698 146.094 C 156.835 145.546,157.160 145.098,157.420 145.098 C 157.967 145.098,159.608 143.002,159.608 142.303 C 159.608 142.043,159.718 141.940,159.852 142.074 C 159.986 142.208,160.617 141.796,161.254 141.159 C 161.892 140.521,162.581 140.000,162.785 140.000 C 162.989 140.000,163.323 139.562,163.527 139.027 C 163.772 138.380,164.098 138.132,164.497 138.285 C 164.920 138.447,165.098 138.270,165.098 137.689 C 165.098 137.235,165.337 136.863,165.628 136.863 C 165.920 136.863,166.758 136.333,167.491 135.685 C 169.837 133.610,170.040 133.477,170.577 133.656 C 170.932 133.775,171.025 133.622,170.859 133.191 C 170.673 132.706,170.844 132.549,171.558 132.549 C 172.078 132.549,172.629 132.345,172.783 132.096 C 172.956 131.816,172.890 131.750,172.610 131.923 C 172.361 132.077,172.157 132.035,172.157 131.830 C 172.157 131.502,173.158 131.102,174.314 130.970 C 174.529 130.945,174.849 130.669,175.024 130.356 C 175.199 130.043,175.489 129.878,175.669 129.989 C 175.849 130.101,176.097 129.928,176.221 129.606 C 176.345 129.283,176.740 129.020,177.099 129.020 C 177.457 129.020,178.082 128.638,178.486 128.172 C 178.890 127.706,179.332 127.437,179.468 127.573 C 179.604 127.709,180.176 127.494,180.740 127.096 C 181.304 126.698,182.350 126.245,183.066 126.090 C 183.781 125.935,184.462 125.561,184.577 125.259 C 184.693 124.957,184.946 124.808,185.139 124.927 C 185.332 125.047,185.490 124.957,185.490 124.729 C 185.490 124.501,185.887 124.311,186.373 124.308 C 187.256 124.302,188.778 123.571,188.039 123.508 C 187.824 123.489,188.000 123.327,188.431 123.147 C 188.863 122.967,189.802 122.904,190.517 123.007 C 191.515 123.151,191.992 122.995,192.558 122.342 C 193.057 121.767,193.749 121.490,194.688 121.490 C 195.453 121.490,196.078 121.362,196.078 121.205 C 196.078 121.048,196.585 120.995,197.205 121.085 C 197.871 121.183,198.547 121.020,198.860 120.685 C 199.151 120.373,199.747 120.195,200.184 120.289 C 200.839 120.430,200.876 120.386,200.392 120.040 C 199.705 119.550,201.226 119.500,214.480 119.578 C 221.238 119.618,223.347 119.514,223.591 119.129 C 223.840 118.737,223.911 118.734,223.916 119.118 C 223.920 119.465,224.770 119.608,226.840 119.608 C 228.445 119.608,229.867 119.784,230.000 120.000 C 230.422 120.683,232.941 120.479,232.941 119.762 C 232.941 119.354,233.155 119.214,233.550 119.365 C 233.901 119.500,234.056 119.434,233.917 119.208 C 233.784 118.994,233.952 118.712,234.289 118.583 C 234.626 118.453,234.902 118.024,234.902 117.628 C 234.902 117.233,235.078 116.800,235.294 116.667 C 235.510 116.533,235.686 116.082,235.686 115.663 C 235.686 115.244,235.883 114.902,236.124 114.902 C 236.380 114.902,236.484 114.494,236.375 113.922 C 236.229 113.160,236.350 112.941,236.917 112.941 C 237.319 112.941,237.647 112.754,237.647 112.526 C 237.647 112.297,237.426 112.222,237.157 112.359 C 236.887 112.495,237.009 112.329,237.428 111.990 C 237.847 111.650,238.061 111.373,237.904 111.373 C 237.748 111.373,237.840 110.975,238.109 110.490 C 238.378 110.005,238.553 109.453,238.498 109.265 C 238.444 109.076,238.671 108.620,239.004 108.252 C 239.337 107.884,239.492 107.465,239.347 107.321 C 239.203 107.177,239.379 107.059,239.739 107.059 C 240.166 107.059,240.392 106.735,240.392 106.123 C 240.392 105.609,240.648 104.695,240.960 104.093 C 241.273 103.490,241.460 102.886,241.376 102.751 C 241.292 102.615,241.651 102.183,242.173 101.791 C 242.695 101.399,243.027 100.923,242.911 100.735 C 242.794 100.546,242.856 100.392,243.049 100.392 C 243.241 100.392,243.399 99.884,243.399 99.263 C 243.399 98.563,243.796 97.737,244.444 97.089 C 245.020 96.513,245.490 95.698,245.490 95.276 C 245.490 94.855,245.667 94.510,245.882 94.510 C 246.098 94.510,246.275 94.157,246.275 93.725 C 246.275 93.294,246.451 92.941,246.667 92.941 C 246.882 92.941,247.027 92.809,246.988 92.647 C 246.918 92.353,248.256 89.391,248.627 89.020 C 249.067 88.580,249.744 86.183,249.562 85.709 C 249.451 85.419,249.731 85.106,250.213 84.980 C 250.679 84.858,250.955 84.590,250.828 84.385 C 250.701 84.179,250.858 83.794,251.177 83.529 C 251.557 83.213,251.671 82.705,251.508 82.053 C 251.333 81.359,251.394 81.143,251.708 81.337 C 251.998 81.517,252.157 81.277,252.157 80.657 C 252.157 80.029,252.427 79.629,252.941 79.494 C 253.391 79.377,253.725 78.959,253.725 78.516 C 253.725 78.091,253.990 77.523,254.314 77.255 C 254.637 76.986,254.902 76.347,254.902 75.834 C 254.902 75.322,255.255 74.549,255.686 74.118 C 256.118 73.686,256.471 72.993,256.471 72.577 C 256.471 72.161,256.747 71.545,257.084 71.207 C 257.421 70.870,257.601 70.439,257.484 70.250 C 257.367 70.060,257.620 69.502,258.047 69.010 C 258.474 68.518,258.824 67.871,258.824 67.573 C 258.824 67.275,259.103 66.604,259.446 66.082 C 259.788 65.560,259.961 64.960,259.831 64.750 C 259.701 64.540,259.970 64.105,260.428 63.784 C 260.886 63.463,261.144 63.009,261.000 62.776 C 260.856 62.544,260.925 62.353,261.153 62.353 C 261.382 62.353,261.569 62.088,261.569 61.765 C 261.569 61.441,261.745 61.176,261.961 61.176 C 262.176 61.176,262.353 60.899,262.353 60.560 C 262.353 60.221,262.628 59.669,262.964 59.333 C 263.300 58.997,263.482 58.480,263.368 58.185 C 263.251 57.880,263.411 57.647,263.738 57.647 C 264.119 57.647,264.314 57.241,264.314 56.447 C 264.314 55.639,264.462 55.339,264.768 55.528 C 265.079 55.721,265.152 55.543,265.000 54.963 C 264.870 54.464,264.936 54.213,265.161 54.353 C 265.371 54.482,265.488 54.350,265.421 54.058 C 265.354 53.766,265.675 52.998,266.136 52.352 C 267.028 51.099,267.059 51.014,267.059 49.804 C 267.059 49.373,267.272 49.064,267.533 49.118 C 267.794 49.172,268.034 48.822,268.067 48.340 C 268.101 47.859,268.350 47.197,268.622 46.870 C 268.893 46.542,269.005 46.275,268.871 46.275 C 268.490 46.275,269.903 43.811,270.894 42.747 C 271.384 42.222,271.697 41.565,271.591 41.288 C 271.484 41.011,271.578 40.784,271.800 40.784 C 272.317 40.784,272.103 36.487,271.569 36.145 C 271.353 36.007,270.868 35.870,270.490 35.839 C 270.113 35.809,269.529 35.762,269.193 35.735 C 268.856 35.708,268.690 35.510,268.824 35.294 C 269.108 34.834,269.024 34.813,266.525 34.699 C 265.477 34.651,264.482 34.390,264.314 34.118 C 264.146 33.847,263.827 33.737,263.605 33.875 C 263.382 34.012,262.923 33.847,262.584 33.508 C 262.244 33.169,261.801 32.994,261.599 33.119 C 261.396 33.244,261.127 33.178,261.000 32.973 C 260.760 32.584,260.398 32.523,257.946 32.453 C 256.976 32.426,256.413 32.200,256.282 31.787 C 256.136 31.330,255.487 31.137,253.844 31.064 C 252.613 31.010,251.483 30.767,251.333 30.524 C 251.183 30.282,250.690 30.181,250.236 30.299 C 249.783 30.418,249.412 30.382,249.412 30.219 C 249.412 30.056,248.142 29.886,246.589 29.840 C 244.367 29.775,243.661 29.606,243.267 29.045 C 242.890 28.506,242.356 28.359,241.090 28.445 C 240.167 28.508,239.235 28.419,239.020 28.247 C 238.804 28.075,237.569 27.906,236.275 27.871 C 233.040 27.786,232.942 27.769,232.935 27.288 C 232.932 27.054,232.758 27.127,232.549 27.451 C 232.296 27.843,232.167 27.876,232.163 27.549 C 232.160 27.279,231.882 27.059,231.545 27.059 C 231.161 27.059,231.043 27.241,231.229 27.549 C 231.456 27.927,231.394 27.936,230.958 27.588 C 230.647 27.340,228.716 27.037,226.667 26.914 C 221.487 26.604,210.907 26.332,210.196 26.491 M258.431 40.392 C 258.431 40.608,257.902 40.784,257.255 40.784 C 256.608 40.784,256.078 40.608,256.078 40.392 C 256.078 40.176,256.608 40.000,257.255 40.000 C 257.902 40.000,258.431 40.176,258.431 40.392 M170.784 41.961 C 170.784 42.394,170.241 42.580,168.725 42.668 C 166.724 42.783,165.757 42.018,167.157 41.427 C 168.209 40.982,170.784 41.362,170.784 41.961 M162.941 44.690 C 164.562 45.354,160.350 46.293,158.660 45.644 C 157.592 45.235,157.979 44.760,159.510 44.599 C 161.907 44.349,162.121 44.354,162.941 44.690 M260.314 44.784 C 260.942 45.412,260.908 46.207,260.224 46.891 C 259.480 47.635,259.347 47.602,259.088 46.612 C 258.901 45.897,258.666 45.805,257.498 45.995 C 256.076 46.226,254.978 45.534,255.480 44.723 C 255.829 44.157,259.736 44.207,260.314 44.784 M140.863 53.412 C 140.611 53.663,140.275 53.739,140.116 53.580 C 139.957 53.421,140.081 53.133,140.392 52.941 C 141.125 52.489,141.455 52.819,140.863 53.412 M141.496 57.746 C 141.656 58.586,140.729 58.993,139.411 58.662 C 138.286 58.380,138.100 57.402,139.118 57.126 C 140.364 56.788,141.363 57.049,141.496 57.746 M117.839 69.948 C 118.550 70.468,118.547 70.499,117.744 70.929 C 116.487 71.601,116.078 71.470,116.078 70.392 C 116.078 69.299,116.727 69.136,117.839 69.948 M128.087 70.802 C 127.880 71.340,127.725 71.371,127.245 70.973 C 126.789 70.593,126.760 70.360,127.116 69.931 C 127.702 69.225,128.438 69.885,128.087 70.802 M244.706 72.173 C 244.706 73.930,243.909 75.160,243.304 74.337 C 242.614 73.398,242.572 71.498,243.235 71.267 C 244.032 70.989,244.706 71.404,244.706 72.173 M231.682 97.318 C 231.745 97.641,231.591 98.420,231.340 99.050 L 230.884 100.196 230.327 98.884 C 229.894 97.861,229.874 97.447,230.238 97.008 C 230.793 96.339,231.523 96.496,231.682 97.318 M236.078 97.428 C 236.078 98.061,235.523 98.530,235.180 98.186 C 234.874 97.880,235.295 96.863,235.728 96.863 C 235.921 96.863,236.078 97.117,236.078 97.428 M87.528 103.039 C 87.370 104.696,87.359 104.706,85.798 104.706 L 84.226 104.706 84.492 103.289 C 84.638 102.509,84.925 101.671,85.128 101.426 C 85.332 101.181,85.892 100.458,86.373 99.819 L 87.246 98.657 87.467 100.015 C 87.588 100.762,87.615 102.123,87.528 103.039 M90.169 108.529 C 90.185 109.072,89.965 109.412,89.596 109.412 C 88.722 109.412,88.450 108.344,89.016 107.132 C 89.564 105.958,90.109 106.618,90.169 108.529 M195.051 110.213 C 195.501 110.631,192.747 111.149,192.123 110.763 C 191.774 110.547,191.840 110.327,192.371 109.938 C 193.073 109.425,194.343 109.555,195.051 110.213 M102.549 110.196 C 102.682 110.412,102.418 110.588,101.961 110.588 C 101.504 110.588,101.239 110.412,101.373 110.196 C 101.506 109.980,101.771 109.804,101.961 109.804 C 102.151 109.804,102.416 109.980,102.549 110.196 M215.686 110.196 C 216.280 110.386,214.378 110.525,210.859 110.549 C 207.078 110.575,205.136 110.451,205.294 110.196 C 205.581 109.732,214.236 109.732,215.686 110.196 M92.549 112.003 C 92.549 112.581,91.846 112.706,90.816 112.311 C 89.994 111.995,90.028 111.467,90.882 111.278 C 91.854 111.062,92.549 111.364,92.549 112.003 M204.706 111.569 C 204.706 112.020,204.205 112.157,202.549 112.157 C 199.210 112.157,199.833 111.131,203.235 111.026 C 204.301 110.993,204.706 111.142,204.706 111.569 M95.863 113.385 C 96.082 113.586,95.814 113.725,95.209 113.725 C 93.947 113.725,92.941 113.363,92.941 112.909 C 92.941 112.506,95.325 112.894,95.863 113.385 M88.384 121.354 C 88.080 122.146,88.532 122.745,89.435 122.745 C 90.368 122.745,90.481 121.370,89.576 121.022 C 88.709 120.690,88.631 120.711,88.384 121.354 M168.717 122.401 L 169.540 122.841 168.618 123.537 C 167.474 124.399,166.667 124.135,166.667 122.899 C 166.667 121.861,167.383 121.687,168.717 122.401 M115.473 123.164 C 115.182 123.636,114.118 123.640,114.118 123.170 C 114.118 122.745,114.969 122.386,115.399 122.629 C 115.564 122.723,115.598 122.964,115.473 123.164 M41.216 128.235 C 40.773 128.343,40.051 128.740,39.612 129.118 C 39.173 129.495,38.533 129.804,38.189 129.804 C 37.794 129.804,37.646 130.021,37.789 130.392 C 37.913 130.716,37.888 130.994,37.733 131.010 C 35.763 131.220,34.952 131.636,35.062 132.381 C 35.174 133.145,33.707 134.848,33.175 134.573 C 32.980 134.471,32.931 134.569,33.067 134.789 C 33.203 135.009,32.967 135.504,32.542 135.889 C 31.780 136.579,31.770 137.403,31.770 199.428 L 31.769 262.269 32.649 262.498 C 33.173 262.634,33.833 263.364,34.279 264.304 C 34.691 265.172,35.243 265.882,35.505 265.882 C 35.768 265.882,36.225 266.227,36.521 266.649 C 36.817 267.070,37.317 267.468,37.632 267.531 C 37.947 267.595,38.539 267.942,38.948 268.303 C 39.356 268.664,40.025 268.894,40.433 268.816 C 40.905 268.725,41.176 268.895,41.176 269.280 C 41.176 269.643,41.400 269.802,41.732 269.675 C 42.038 269.557,42.379 269.699,42.490 269.989 C 42.889 271.028,47.805 270.674,49.566 269.479 C 50.405 268.910,51.288 268.423,51.526 268.399 C 52.647 268.285,52.879 268.185,53.716 267.459 C 54.208 267.032,54.766 266.779,54.956 266.896 C 55.414 267.179,56.510 266.061,56.158 265.670 C 56.006 265.502,56.105 265.492,56.376 265.649 C 57.118 266.076,58.360 265.550,58.631 264.694 C 58.763 264.278,58.993 263.965,59.142 263.998 C 59.598 264.100,61.569 263.032,61.569 262.682 C 61.569 262.501,62.015 262.353,62.561 262.353 C 63.107 262.353,63.656 262.088,63.780 261.765 C 63.904 261.441,64.275 261.176,64.604 261.176 C 64.933 261.176,65.488 260.866,65.836 260.488 C 66.757 259.487,68.480 258.686,69.009 259.013 C 69.285 259.184,69.549 258.970,69.680 258.471 C 69.804 257.996,70.213 257.647,70.646 257.647 C 71.059 257.647,71.499 257.382,71.623 257.059 C 71.747 256.735,72.139 256.465,72.493 256.458 C 73.367 256.441,74.566 255.489,74.210 255.094 C 74.051 254.919,74.128 254.894,74.380 255.039 C 74.632 255.183,75.075 255.065,75.364 254.776 C 75.653 254.487,76.114 254.326,76.388 254.417 C 76.663 254.508,76.838 254.354,76.777 254.074 C 76.716 253.794,76.843 253.548,77.059 253.528 C 78.061 253.433,79.216 252.844,79.222 252.425 C 79.225 252.133,79.358 252.166,79.578 252.515 C 79.877 252.987,80.018 252.979,80.534 252.463 C 80.867 252.130,81.015 251.734,80.864 251.583 C 80.712 251.431,80.765 251.353,80.980 251.408 C 81.517 251.547,83.529 250.540,83.529 250.133 C 83.529 249.952,83.890 249.804,84.332 249.804 C 84.773 249.804,85.575 249.363,86.114 248.824 C 86.653 248.284,87.362 247.843,87.688 247.843 C 88.014 247.843,88.173 247.667,88.039 247.451 C 87.906 247.235,88.179 247.059,88.646 247.059 C 89.113 247.059,90.019 246.618,90.660 246.078 C 91.301 245.539,92.150 245.098,92.546 245.098 C 92.943 245.098,93.327 244.966,93.399 244.804 C 93.471 244.642,94.059 244.229,94.706 243.885 C 95.353 243.542,95.838 243.057,95.784 242.807 C 95.730 242.557,95.819 242.374,95.980 242.399 C 96.771 242.524,97.673 242.319,97.508 242.052 C 97.405 241.887,97.748 241.551,98.269 241.305 C 98.790 241.059,99.118 241.018,98.997 241.213 C 98.876 241.409,98.964 241.569,99.193 241.569 C 99.421 241.569,99.608 241.304,99.608 240.980 C 99.608 240.614,99.978 240.392,100.588 240.392 C 101.127 240.392,101.569 240.228,101.569 240.026 C 101.569 239.825,101.966 239.535,102.451 239.382 C 102.936 239.229,103.598 238.801,103.922 238.431 C 104.511 237.758,106.194 237.025,106.786 237.184 C 107.207 237.297,108.255 236.229,107.987 235.961 C 107.871 235.845,108.165 235.541,108.641 235.287 C 109.224 234.975,109.419 234.965,109.240 235.255 C 109.090 235.498,109.240 235.686,109.585 235.686 C 109.931 235.686,110.196 235.352,110.196 234.914 C 110.196 234.382,110.383 234.214,110.796 234.372 C 111.142 234.505,111.701 234.252,112.117 233.772 C 112.513 233.315,113.037 232.941,113.281 232.941 C 113.526 232.941,113.725 232.775,113.725 232.572 C 113.725 232.368,114.076 232.269,114.505 232.352 C 115.256 232.497,116.471 231.658,116.471 230.996 C 116.471 230.820,116.691 230.684,116.961 230.694 C 118.225 230.741,118.849 230.554,118.627 230.196 C 118.494 229.980,118.579 229.804,118.817 229.804 C 119.054 229.804,119.462 229.624,119.722 229.404 C 121.630 227.795,122.090 227.525,122.591 227.718 C 122.911 227.840,123.581 227.479,124.128 226.889 C 124.662 226.313,125.098 225.943,125.098 226.067 C 125.098 226.191,125.538 226.005,126.075 225.652 C 126.612 225.300,126.955 224.855,126.836 224.663 C 126.718 224.471,127.139 224.314,127.772 224.314 C 128.405 224.314,129.143 224.049,129.412 223.725 C 129.680 223.402,130.320 223.137,130.832 223.137 C 131.345 223.137,131.765 222.961,131.765 222.745 C 131.765 222.529,131.965 222.353,132.209 222.353 C 132.453 222.353,132.984 221.972,133.388 221.506 C 133.792 221.040,134.236 220.772,134.374 220.910 C 134.513 221.049,134.930 220.812,135.300 220.385 C 135.671 219.957,136.459 219.568,137.050 219.519 C 137.760 219.460,138.242 219.126,138.465 218.538 C 138.692 217.942,139.126 217.647,139.776 217.647 C 140.311 217.647,141.198 217.198,141.747 216.649 C 142.296 216.100,142.751 215.791,142.758 215.963 C 142.764 216.134,142.985 215.999,143.248 215.662 C 143.803 214.950,144.962 214.415,146.078 214.355 C 146.510 214.332,146.817 214.089,146.762 213.815 C 146.706 213.541,147.086 213.154,147.606 212.957 C 148.126 212.759,148.667 212.410,148.809 212.181 C 148.950 211.952,149.421 211.765,149.855 211.765 C 150.772 211.765,151.855 210.823,151.452 210.376 C 151.300 210.208,151.392 210.194,151.655 210.345 C 151.932 210.504,152.496 210.205,152.989 209.637 C 153.459 209.097,153.994 208.747,154.177 208.860 C 154.485 209.050,154.675 208.468,154.549 207.724 C 154.478 207.301,155.528 206.275,156.033 206.275 C 156.254 206.275,156.551 205.657,156.693 204.902 C 156.834 204.147,157.090 203.529,157.260 203.529 C 157.929 203.529,157.720 193.837,157.046 193.579 C 156.702 193.447,156.532 193.159,156.667 192.940 C 156.803 192.721,156.549 192.078,156.104 191.512 C 155.659 190.946,155.287 190.639,155.278 190.829 C 155.269 191.020,154.960 190.642,154.591 189.988 C 153.589 188.209,152.456 187.059,151.706 187.059 C 151.338 187.059,150.695 186.623,150.276 186.091 C 149.775 185.455,149.229 185.178,148.681 185.284 C 148.142 185.388,147.702 185.175,147.439 184.683 C 147.205 184.245,146.620 183.922,146.065 183.922 C 145.467 183.922,145.098 183.697,145.098 183.333 C 145.098 183.010,145.275 182.745,145.490 182.745 C 145.706 182.745,145.882 182.575,145.882 182.366 C 145.882 182.158,145.157 182.060,144.271 182.148 C 143.384 182.236,142.765 182.202,142.896 182.072 C 143.120 181.847,142.071 181.103,140.784 180.573 C 139.241 179.937,137.771 178.993,137.058 178.179 C 136.599 177.655,135.744 177.242,134.999 177.185 C 134.044 177.112,133.725 176.902,133.725 176.345 C 133.725 175.766,133.527 175.651,132.831 175.826 C 132.198 175.985,131.792 175.821,131.445 175.265 C 131.175 174.833,130.788 174.583,130.584 174.709 C 130.093 175.012,128.547 174.173,128.810 173.747 C 128.923 173.565,128.724 173.304,128.369 173.168 C 127.788 172.945,127.798 172.864,128.469 172.369 C 129.007 171.972,129.097 171.697,128.791 171.386 C 128.162 170.747,126.992 171.328,127.253 172.151 C 127.428 172.703,127.285 172.801,126.516 172.654 C 125.991 172.553,125.474 172.136,125.366 171.726 C 125.259 171.316,124.802 170.958,124.350 170.931 C 123.899 170.904,123.353 170.838,123.137 170.784 C 122.922 170.730,122.558 170.664,122.330 170.637 C 122.101 170.610,122.016 170.424,122.139 170.224 C 122.350 169.883,120.910 169.173,120.318 169.326 C 120.169 169.364,119.937 169.046,119.801 168.619 C 119.645 168.126,119.207 167.843,118.601 167.843 C 118.076 167.843,117.647 167.667,117.647 167.451 C 117.647 167.235,117.483 167.103,117.283 167.157 C 117.082 167.211,116.628 166.902,116.273 166.471 C 115.918 166.039,115.730 165.890,115.854 166.140 C 116.024 166.482,115.847 166.483,115.132 166.146 C 114.611 165.900,114.257 165.583,114.345 165.440 C 114.433 165.298,113.800 164.899,112.939 164.555 C 112.077 164.210,111.373 163.750,111.373 163.533 C 111.373 163.315,111.026 163.137,110.604 163.137 C 110.181 163.137,109.488 162.766,109.065 162.311 C 108.642 161.857,108.105 161.603,107.873 161.746 C 107.641 161.890,107.451 161.820,107.451 161.592 C 107.451 161.363,107.192 161.176,106.875 161.176 C 106.499 161.176,106.386 160.950,106.550 160.524 C 106.703 160.125,106.642 159.969,106.395 160.121 C 105.913 160.420,102.745 159.242,102.745 158.764 C 102.745 158.581,102.480 158.431,102.157 158.431 C 101.833 158.431,101.569 158.279,101.569 158.092 C 101.569 157.906,100.773 157.450,99.801 157.079 C 98.829 156.708,98.118 156.269,98.219 156.104 C 98.502 155.647,96.607 154.766,95.914 155.032 C 95.566 155.165,95.344 155.075,95.397 154.822 C 95.448 154.578,95.078 154.163,94.575 153.901 C 94.071 153.639,93.463 153.227,93.222 152.987 C 92.981 152.746,92.467 152.549,92.078 152.549 C 91.690 152.549,91.373 152.373,91.373 152.157 C 91.373 151.941,91.183 151.765,90.952 151.765 C 90.721 151.765,90.268 151.500,89.944 151.176 C 89.620 150.853,88.927 150.588,88.403 150.588 C 87.880 150.588,87.451 150.412,87.451 150.196 C 87.451 149.980,87.259 149.804,87.024 149.804 C 86.789 149.804,86.263 149.407,85.855 148.922 C 85.220 148.166,85.057 148.124,84.720 148.627 C 84.428 149.064,84.324 149.082,84.320 148.697 C 84.311 147.930,83.302 147.059,82.423 147.059 C 81.999 147.059,81.547 146.783,81.417 146.446 C 81.288 146.109,81.016 145.935,80.812 146.061 C 80.609 146.187,79.959 145.806,79.367 145.214 C 78.776 144.623,77.838 144.078,77.283 144.005 C 76.728 143.931,75.849 143.485,75.329 143.014 C 74.809 142.542,74.514 142.422,74.674 142.745 C 74.834 143.069,74.510 142.838,73.953 142.233 C 73.397 141.628,72.936 141.275,72.929 141.449 C 72.922 141.623,72.666 141.434,72.359 141.029 C 72.030 140.594,71.548 140.391,71.180 140.532 C 70.817 140.672,70.466 140.530,70.335 140.189 C 70.213 139.870,69.874 139.608,69.584 139.608 C 69.293 139.608,68.650 139.211,68.155 138.725 C 67.660 138.240,67.034 137.825,66.765 137.804 C 66.495 137.782,66.010 137.738,65.686 137.706 C 65.363 137.674,65.098 137.372,65.098 137.036 C 65.098 136.699,64.936 136.525,64.737 136.647 C 64.539 136.770,64.107 136.600,63.778 136.271 C 63.449 135.942,62.949 135.720,62.668 135.777 C 62.372 135.838,62.205 135.593,62.272 135.196 C 62.368 134.623,62.078 134.509,60.507 134.504 C 59.149 134.499,58.791 134.392,59.216 134.118 C 59.714 133.795,59.696 133.737,59.095 133.731 C 58.654 133.728,58.492 133.552,58.669 133.267 C 58.851 132.971,58.749 132.886,58.381 133.027 C 58.067 133.147,57.475 133.001,57.065 132.701 C 56.656 132.402,56.464 132.157,56.640 132.157 C 56.815 132.157,56.750 131.905,56.495 131.598 C 56.240 131.290,55.556 131.091,54.976 131.155 C 54.282 131.231,53.604 130.955,52.992 130.347 C 52.481 129.839,51.863 129.538,51.619 129.677 C 51.376 129.816,51.306 129.786,51.464 129.611 C 51.946 129.080,50.455 128.266,49.451 128.512 C 48.783 128.675,48.594 128.607,48.799 128.275 C 49.090 127.804,43.115 127.774,41.216 128.235 M140.872 136.689 C 141.327 137.144,140.202 139.178,139.381 139.384 C 137.489 139.859,135.520 138.599,136.667 137.647 C 136.990 137.379,137.255 137.274,137.255 137.415 C 137.255 137.557,137.740 137.409,138.333 137.087 C 139.457 136.478,140.498 136.315,140.872 136.689 M160.318 142.881 C 159.052 143.844,159.800 145.332,161.354 144.942 C 162.145 144.743,162.353 144.448,162.353 143.522 C 162.353 142.234,161.516 141.971,160.318 142.881 M66.300 146.288 C 67.411 146.883,67.225 147.522,65.984 147.379 C 65.335 147.304,64.857 146.983,64.779 146.569 C 64.631 145.792,65.184 145.691,66.300 146.288 M53.636 146.740 C 53.393 147.467,52.549 147.588,52.549 146.895 C 52.549 146.554,52.828 146.275,53.170 146.275 C 53.511 146.275,53.721 146.484,53.636 146.740 M156.863 147.451 C 156.863 148.097,157.066 148.261,157.745 148.165 C 158.230 148.096,158.627 147.775,158.627 147.451 C 158.627 147.127,158.230 146.806,157.745 146.737 C 157.066 146.641,156.863 146.805,156.863 147.451 M84.088 157.000 L 85.235 157.918 83.771 157.867 C 82.466 157.822,81.592 157.227,81.575 156.373 C 81.562 155.762,82.985 156.117,84.088 157.000 M79.216 159.412 C 79.216 159.735,78.951 160.000,78.627 160.000 C 78.304 160.000,78.039 159.735,78.039 159.412 C 78.039 159.088,78.304 158.824,78.627 158.824 C 78.951 158.824,79.216 159.088,79.216 159.412 M89.591 159.581 C 89.715 159.782,89.668 160.038,89.486 160.150 C 88.982 160.462,87.430 159.959,87.675 159.563 C 87.958 159.104,89.304 159.117,89.591 159.581 M105.490 169.509 C 105.490 169.728,105.094 170.252,104.609 170.672 L 103.729 171.436 103.220 170.190 C 102.509 168.447,103.176 167.593,104.546 168.491 C 105.065 168.831,105.490 169.289,105.490 169.509 M301.389 175.241 C 301.203 175.828,300.845 175.946,299.581 175.839 C 298.483 175.746,298.088 175.840,298.279 176.149 C 298.458 176.438,298.375 176.482,298.040 176.275 C 297.722 176.078,297.343 176.212,297.038 176.628 C 296.769 176.996,296.178 177.326,295.725 177.360 C 295.273 177.394,294.902 177.531,294.902 177.665 C 294.902 177.799,294.667 177.908,294.379 177.908 C 294.092 177.908,293.856 177.681,293.856 177.403 C 293.856 177.125,294.001 176.987,294.179 177.096 C 294.356 177.206,294.396 177.023,294.268 176.689 C 294.140 176.356,293.877 176.181,293.684 176.300 C 293.491 176.419,293.333 176.330,293.333 176.102 C 293.333 175.413,291.820 175.635,291.420 176.383 C 290.886 177.379,291.610 178.533,292.576 178.227 C 293.147 178.046,293.272 178.136,293.093 178.602 C 292.963 178.939,292.675 179.216,292.452 179.216 C 292.230 179.216,291.851 179.471,291.612 179.782 C 291.372 180.094,290.922 180.403,290.611 180.469 C 289.885 180.622,287.843 182.639,287.843 183.203 C 287.843 183.679,286.339 185.098,285.835 185.098 C 285.659 185.098,285.615 185.358,285.737 185.676 C 285.990 186.338,284.956 187.555,284.494 187.138 C 284.326 186.987,284.312 187.079,284.464 187.342 C 284.619 187.612,284.389 188.122,283.938 188.508 C 283.477 188.903,283.137 189.671,283.137 190.320 C 283.137 191.127,282.909 191.506,282.329 191.657 C 281.749 191.809,281.538 192.159,281.582 192.895 C 281.659 194.170,281.201 195.686,280.739 195.686 C 280.543 195.686,280.392 204.356,280.392 215.641 C 280.392 235.503,280.388 235.596,279.579 235.808 C 279.131 235.925,278.670 236.386,278.553 236.834 C 278.436 237.281,278.184 237.647,277.993 237.647 C 277.803 237.647,277.647 237.834,277.647 238.062 C 277.647 238.291,277.868 238.353,278.137 238.202 C 278.407 238.050,277.789 238.722,276.765 239.696 C 275.740 240.670,274.902 241.760,274.902 242.118 C 274.902 242.477,274.637 242.871,274.314 242.995 C 273.990 243.120,273.725 243.467,273.725 243.767 C 273.725 244.068,273.539 244.314,273.310 244.314 C 273.082 244.314,273.004 244.490,273.137 244.706 C 273.271 244.922,273.105 245.098,272.768 245.098 C 272.432 245.098,272.157 245.352,272.157 245.663 C 272.157 245.974,271.953 246.354,271.704 246.508 C 271.401 246.696,271.355 246.606,271.566 246.237 C 271.739 245.934,271.457 246.123,270.940 246.657 C 270.423 247.192,270.000 247.809,270.000 248.030 C 270.000 248.251,269.603 248.488,269.118 248.557 C 268.568 248.635,268.147 249.040,267.997 249.635 C 267.844 250.247,267.477 250.588,266.974 250.588 C 266.439 250.588,266.262 250.775,266.416 251.176 C 266.554 251.535,266.417 251.765,266.066 251.765 C 265.749 251.765,265.490 251.941,265.490 252.157 C 265.490 252.373,265.266 252.549,264.991 252.549 C 264.717 252.549,263.882 253.255,263.137 254.118 C 262.392 254.980,261.470 255.686,261.087 255.686 C 260.705 255.686,260.392 255.945,260.392 256.262 C 260.392 256.613,260.162 256.750,259.804 256.612 C 259.480 256.488,259.216 256.570,259.216 256.794 C 259.216 257.019,258.863 257.314,258.431 257.451 C 258.000 257.588,257.647 257.947,257.647 258.249 C 257.647 258.601,257.412 258.709,256.994 258.549 C 256.556 258.380,256.435 258.448,256.625 258.757 C 256.782 259.010,256.698 259.216,256.439 259.216 C 256.180 259.216,255.716 259.525,255.406 259.902 C 255.097 260.279,254.956 260.368,255.092 260.098 C 255.477 259.338,254.874 259.520,254.118 260.392 C 253.743 260.824,252.955 261.217,252.366 261.265 C 251.777 261.314,250.863 261.755,250.333 262.246 C 249.804 262.736,249.149 263.137,248.877 263.137 C 248.606 263.137,248.041 263.447,247.623 263.825 C 247.205 264.203,246.442 264.453,245.927 264.379 C 245.412 264.305,244.845 264.481,244.666 264.770 C 244.488 265.058,244.204 265.309,244.034 265.327 C 243.864 265.345,243.229 265.566,242.622 265.817 C 242.014 266.069,240.933 266.275,240.219 266.275 C 239.028 266.275,237.779 267.060,238.239 267.520 C 238.345 267.626,238.211 267.729,237.941 267.749 C 237.672 267.769,236.789 267.827,235.980 267.878 C 235.172 267.929,234.510 268.162,234.510 268.397 C 234.509 268.833,233.336 269.086,231.098 269.132 C 230.408 269.147,229.933 269.304,230.043 269.481 C 230.153 269.659,229.541 269.804,228.683 269.804 C 227.826 269.804,227.063 269.988,226.988 270.213 C 226.805 270.762,205.740 270.741,205.556 270.193 C 205.484 269.979,204.857 269.804,204.163 269.804 C 203.470 269.804,202.698 269.600,202.448 269.350 C 202.104 269.006,201.829 269.030,201.314 269.448 C 200.940 269.752,200.748 269.808,200.888 269.574 C 201.058 269.291,200.465 269.140,199.124 269.122 C 197.750 269.104,196.958 268.896,196.646 268.470 C 196.394 268.125,195.855 267.846,195.447 267.849 C 194.825 267.854,194.800 267.916,195.294 268.235 C 195.648 268.464,195.696 268.618,195.415 268.621 C 195.158 268.625,194.839 268.451,194.706 268.235 C 194.573 268.020,193.945 267.843,193.310 267.843 C 192.676 267.843,192.157 267.673,192.157 267.465 C 192.157 267.257,191.783 266.886,191.325 266.641 C 190.652 266.281,190.554 266.297,190.812 266.726 C 191.061 267.138,191.006 267.158,190.565 266.819 C 190.254 266.579,189.472 266.256,188.827 266.101 C 188.183 265.947,187.549 265.649,187.420 265.439 C 187.290 265.230,186.803 265.030,186.337 264.995 C 185.871 264.960,185.490 264.792,185.490 264.622 C 185.490 264.453,185.150 264.314,184.734 264.314 C 184.318 264.314,183.699 264.035,183.358 263.694 C 183.017 263.353,182.530 263.144,182.276 263.228 C 182.022 263.313,181.507 263.107,181.131 262.770 C 179.504 261.310,179.326 261.223,178.872 261.677 C 178.546 262.003,178.431 261.995,178.431 261.647 C 178.431 261.388,178.078 261.176,177.647 261.176 C 177.216 261.176,176.863 260.927,176.863 260.621 C 176.863 260.316,176.346 259.837,175.715 259.558 C 175.083 259.278,174.630 258.947,174.707 258.822 C 174.784 258.697,174.465 258.565,173.998 258.530 C 173.531 258.495,173.087 258.282,173.012 258.057 C 172.937 257.831,172.626 257.647,172.320 257.647 C 172.015 257.647,171.765 257.382,171.765 257.059 C 171.765 256.735,171.578 256.471,171.349 256.471 C 171.121 256.471,171.046 256.691,171.182 256.961 C 171.318 257.230,171.013 256.966,170.504 256.373 C 169.995 255.779,169.178 255.294,168.688 255.294 C 168.194 255.294,167.905 255.119,168.039 254.902 C 168.173 254.686,168.139 254.507,167.964 254.504 C 167.020 254.486,166.596 253.806,167.027 253.001 C 167.495 252.126,166.086 251.350,165.118 251.949 C 164.888 252.091,164.597 251.937,164.471 251.608 C 164.345 251.279,163.902 250.903,163.487 250.771 C 163.073 250.639,162.817 250.398,162.918 250.234 C 163.139 249.876,160.153 247.059,159.553 247.059 C 159.321 247.059,159.233 246.794,159.358 246.471 C 159.510 246.072,159.338 245.882,158.824 245.882 C 158.328 245.882,158.138 245.689,158.278 245.324 C 158.401 245.005,158.144 244.580,157.677 244.330 C 157.229 244.090,156.863 243.547,156.863 243.123 C 156.863 242.700,156.676 242.353,156.447 242.353 C 156.219 242.353,156.152 242.574,156.297 242.843 C 156.443 243.113,156.124 242.848,155.589 242.255 C 154.457 241.002,153.008 240.858,151.496 241.848 C 150.932 242.218,150.201 242.560,149.872 242.608 C 149.544 242.656,149.120 242.972,148.931 243.309 C 148.743 243.646,148.263 243.922,147.866 243.922 C 147.468 243.922,147.041 244.186,146.917 244.510 C 146.793 244.833,146.333 245.098,145.895 245.098 C 145.457 245.098,145.098 245.255,145.098 245.448 C 145.098 245.640,144.650 245.910,144.102 246.047 C 143.554 246.185,143.211 246.469,143.340 246.678 C 143.473 246.893,143.046 247.059,142.359 247.059 C 141.418 247.059,141.168 247.214,141.257 247.745 C 141.342 248.250,141.062 248.466,140.196 248.563 C 139.549 248.636,138.867 248.966,138.680 249.297 C 138.442 249.717,138.257 249.764,138.064 249.451 C 137.886 249.165,137.598 249.358,137.259 249.993 C 136.968 250.536,136.515 250.980,136.253 250.980 C 135.991 250.980,135.293 251.231,134.702 251.538 C 134.111 251.844,133.365 251.994,133.043 251.870 C 132.586 251.695,132.517 251.851,132.726 252.588 C 132.898 253.196,132.867 253.349,132.638 253.021 C 132.354 252.612,132.184 252.631,131.780 253.119 C 131.503 253.452,131.010 253.725,130.684 253.725 C 130.359 253.725,129.807 254.053,129.458 254.454 C 129.109 254.854,128.426 255.307,127.941 255.461 C 127.456 255.614,127.059 255.904,127.059 256.105 C 127.059 256.306,126.627 256.471,126.100 256.471 C 125.551 256.471,124.504 257.056,123.649 257.841 C 122.828 258.595,121.936 259.213,121.667 259.214 C 121.397 259.215,121.176 259.411,121.176 259.650 C 121.176 259.922,120.796 259.990,120.163 259.831 C 119.591 259.687,119.246 259.731,119.370 259.932 C 119.490 260.127,119.241 260.603,118.814 260.989 C 118.388 261.375,118.039 261.539,118.039 261.355 C 118.039 261.170,117.827 261.231,117.569 261.490 C 117.310 261.749,116.770 261.961,116.369 261.961 C 115.918 261.961,115.747 262.133,115.920 262.414 C 116.080 262.673,116.029 262.761,115.799 262.619 C 115.579 262.483,115.083 262.720,114.698 263.147 C 114.312 263.573,113.759 263.922,113.469 263.922 C 113.179 263.922,112.941 264.093,112.941 264.301 C 112.941 264.510,112.648 264.569,112.289 264.431 C 111.812 264.248,111.723 264.322,111.961 264.706 C 112.197 265.088,112.111 265.164,111.643 264.985 C 111.284 264.847,110.867 264.972,110.697 265.268 C 110.529 265.560,109.775 266.086,109.020 266.439 C 107.205 267.286,105.916 268.045,105.379 268.582 C 105.138 268.823,104.668 269.020,104.333 269.021 C 103.999 269.022,103.196 269.513,102.549 270.113 C 101.865 270.746,101.059 271.139,100.623 271.050 C 100.130 270.950,99.408 271.417,98.519 272.410 C 97.774 273.241,97.317 273.649,97.504 273.315 C 97.737 272.899,97.643 272.924,97.206 273.396 C 96.855 273.775,96.448 273.965,96.302 273.818 C 96.156 273.672,95.872 273.812,95.671 274.129 C 95.352 274.634,95.305 274.632,95.298 274.118 C 95.292 273.769,94.998 273.970,94.576 274.611 C 94.183 275.206,93.743 275.574,93.598 275.428 C 93.452 275.282,93.333 275.350,93.333 275.579 C 93.333 275.808,93.059 276.100,92.725 276.228 C 92.376 276.362,92.218 276.296,92.356 276.074 C 92.487 275.861,92.429 275.686,92.226 275.686 C 92.022 275.686,91.764 276.039,91.651 276.471 C 91.528 276.940,91.116 277.255,90.625 277.255 C 90.173 277.255,89.804 277.415,89.804 277.610 C 89.804 277.806,89.451 277.873,89.020 277.761 C 88.581 277.646,88.235 277.749,88.235 277.993 C 88.235 278.234,88.068 278.431,87.863 278.431 C 87.659 278.431,87.015 278.873,86.434 279.412 C 85.852 279.951,84.944 280.392,84.416 280.392 C 83.786 280.392,83.386 280.662,83.251 281.176 C 83.123 281.665,82.716 281.961,82.171 281.961 C 81.214 281.961,79.468 283.259,79.876 283.667 C 80.016 283.807,79.599 283.922,78.950 283.922 C 78.271 283.922,77.470 284.251,77.067 284.697 C 76.681 285.123,76.183 285.359,75.959 285.221 C 75.712 285.067,75.649 285.220,75.799 285.612 C 75.946 285.993,75.797 286.393,75.433 286.597 C 74.905 286.892,74.894 287.067,75.352 287.866 C 76.242 289.421,76.765 289.873,77.024 289.310 C 77.147 289.043,77.149 289.221,77.028 289.707 C 76.810 290.587,77.709 291.964,78.189 291.485 C 78.400 291.273,78.490 291.646,78.405 292.383 C 78.391 292.508,78.832 292.998,79.386 293.474 C 79.939 293.950,80.392 294.652,80.392 295.036 C 80.392 295.419,80.569 295.623,80.784 295.490 C 81.000 295.357,81.176 295.523,81.176 295.859 C 81.176 296.195,81.363 296.471,81.592 296.471 C 81.820 296.471,81.891 296.659,81.748 296.889 C 81.606 297.120,81.860 297.404,82.313 297.523 C 82.767 297.642,83.137 298.057,83.137 298.445 C 83.137 298.834,83.756 299.534,84.512 300.002 C 85.268 300.469,85.771 301.039,85.629 301.269 C 85.487 301.499,85.696 301.926,86.093 302.216 C 86.491 302.507,86.693 302.745,86.542 302.745 C 86.391 302.745,86.774 303.275,87.392 303.922 C 88.010 304.569,88.714 305.098,88.957 305.098 C 89.199 305.098,89.508 305.539,89.643 306.078 C 89.778 306.618,90.135 307.059,90.435 307.059 C 90.735 307.059,90.980 307.412,90.980 307.843 C 90.980 308.275,91.143 308.627,91.343 308.627 C 91.820 308.627,96.863 313.703,96.863 314.183 C 96.863 314.388,97.039 314.447,97.255 314.314 C 97.471 314.180,97.647 314.332,97.647 314.650 C 97.647 314.968,98.397 315.815,99.314 316.533 C 100.230 317.250,101.039 317.971,101.111 318.134 C 101.183 318.298,101.492 318.431,101.797 318.431 C 102.103 318.431,102.353 318.696,102.353 319.020 C 102.353 319.343,102.518 319.608,102.719 319.608 C 102.920 319.608,103.197 319.963,103.335 320.398 C 103.473 320.832,103.734 321.096,103.914 320.985 C 104.402 320.683,105.520 321.202,105.267 321.613 C 105.147 321.807,105.311 322.230,105.633 322.552 C 106.326 323.245,106.831 323.329,106.433 322.685 C 106.260 322.404,106.326 322.338,106.606 322.512 C 106.855 322.665,107.059 323.042,107.059 323.349 C 107.059 323.656,107.500 324.017,108.039 324.153 C 108.676 324.312,109.020 324.674,109.020 325.183 C 109.020 325.718,109.206 325.895,109.608 325.741 C 109.931 325.616,110.196 325.696,110.196 325.918 C 110.196 326.139,110.346 326.228,110.529 326.115 C 110.712 326.002,111.095 326.344,111.380 326.876 C 111.664 327.408,112.132 327.843,112.419 327.843 C 112.706 327.843,112.941 328.108,112.941 328.431 C 112.941 328.827,113.337 329.020,114.154 329.020 C 115.025 329.020,115.424 329.234,115.566 329.779 C 115.675 330.197,116.290 330.722,116.931 330.946 C 117.573 331.169,117.992 331.524,117.862 331.735 C 117.732 331.945,118.027 332.329,118.518 332.588 C 119.010 332.847,119.541 333.253,119.700 333.490 C 119.891 333.776,119.990 333.736,119.994 333.371 C 119.998 332.972,120.189 333.025,120.692 333.567 C 121.501 334.441,122.661 335.223,123.627 335.547 C 124.005 335.674,124.314 335.934,124.314 336.124 C 124.314 336.315,124.534 336.426,124.804 336.373 C 125.074 336.319,125.250 336.495,125.196 336.765 C 125.142 337.034,125.260 337.255,125.458 337.255 C 125.656 337.255,126.126 337.373,126.503 337.518 C 127.023 337.717,127.107 337.646,126.852 337.224 C 126.568 336.752,126.616 336.747,127.164 337.192 C 127.521 337.481,127.923 338.065,128.058 338.489 C 128.202 338.943,128.571 339.204,128.955 339.122 C 129.314 339.047,129.917 339.328,130.294 339.748 C 130.672 340.168,130.980 340.391,130.980 340.242 C 130.980 340.094,131.333 340.161,131.765 340.392 C 132.196 340.623,132.549 341.083,132.549 341.414 C 132.549 341.799,132.868 341.991,133.431 341.945 C 134.911 341.826,135.352 341.942,135.082 342.379 C 134.939 342.610,135.193 342.895,135.647 343.013 C 136.100 343.132,136.471 343.385,136.471 343.575 C 136.471 343.766,136.991 343.922,137.628 343.922 C 138.296 343.922,138.938 344.195,139.148 344.570 C 139.376 344.979,139.760 345.124,140.184 344.961 C 140.656 344.780,140.918 344.937,141.062 345.489 C 141.194 345.991,141.597 346.275,142.179 346.275 C 142.681 346.275,143.200 346.451,143.333 346.667 C 143.467 346.882,143.876 347.059,144.243 347.059 C 144.609 347.059,145.146 347.438,145.435 347.901 C 145.860 348.581,146.028 348.637,146.308 348.195 C 146.556 347.804,146.656 347.787,146.661 348.137 C 146.664 348.407,146.937 348.627,147.267 348.627 C 147.598 348.627,147.969 348.892,148.093 349.216 C 148.232 349.576,148.826 349.804,149.627 349.804 C 150.346 349.804,151.031 349.960,151.149 350.152 C 151.267 350.343,151.988 350.616,152.752 350.760 C 153.515 350.903,154.063 351.143,153.971 351.294 C 153.878 351.445,154.345 351.608,155.009 351.656 C 155.672 351.704,156.325 351.921,156.458 352.137 C 156.592 352.353,157.046 352.596,157.468 352.677 C 158.708 352.917,160.817 353.954,160.569 354.203 C 160.443 354.328,160.925 354.439,161.641 354.449 C 162.356 354.458,163.912 354.848,165.098 355.314 C 166.284 355.781,168.124 356.248,169.185 356.352 C 170.247 356.456,171.482 356.769,171.930 357.047 C 172.379 357.325,173.438 357.569,174.285 357.590 C 175.132 357.611,176.005 357.809,176.226 358.030 C 176.447 358.251,177.107 358.431,177.693 358.431 C 178.279 358.431,178.817 358.599,178.889 358.804 C 178.961 359.009,179.902 359.266,180.980 359.376 C 183.237 359.606,186.548 360.272,187.087 360.606 C 187.289 360.731,188.822 360.924,190.492 361.035 C 192.537 361.170,193.632 361.418,193.842 361.793 C 194.327 362.656,236.015 362.589,236.648 361.724 C 236.942 361.322,237.952 361.091,239.814 361.001 C 242.497 360.871,245.117 360.469,248.627 359.648 C 249.598 359.421,251.128 359.231,252.027 359.225 C 253.934 359.214,254.986 358.885,254.683 358.395 C 254.565 358.204,254.743 358.153,255.078 358.282 C 255.412 358.410,255.686 358.320,255.686 358.081 C 255.686 357.824,256.455 357.647,257.572 357.647 C 258.623 357.647,259.795 357.392,260.219 357.071 C 260.638 356.755,261.394 356.490,261.900 356.483 C 262.406 356.476,263.365 356.083,264.030 355.609 C 264.757 355.091,265.122 354.974,264.944 355.315 C 264.781 355.627,264.926 355.540,265.265 355.121 C 265.605 354.702,265.882 354.576,265.882 354.841 C 265.882 355.195,266.083 355.215,266.641 354.916 C 267.058 354.692,267.847 354.510,268.394 354.510 C 268.940 354.510,269.967 354.186,270.674 353.790 C 271.382 353.394,272.446 352.950,273.039 352.802 C 273.632 352.655,274.118 352.361,274.118 352.149 C 274.118 351.938,274.471 351.765,274.902 351.765 C 275.333 351.765,275.689 351.544,275.692 351.275 C 275.696 350.942,275.832 350.974,276.114 351.373 C 276.427 351.815,276.580 351.839,276.729 351.471 C 276.839 351.201,277.252 350.980,277.648 350.980 C 278.728 350.980,279.631 350.552,279.386 350.155 C 279.267 349.962,279.720 349.804,280.392 349.804 C 281.107 349.804,281.514 349.641,281.373 349.412 C 281.239 349.196,281.361 349.006,281.644 348.990 C 283.647 348.877,285.214 348.348,284.926 347.882 C 284.804 347.685,285.101 347.622,285.588 347.742 C 286.073 347.861,286.341 347.818,286.182 347.646 C 285.832 347.265,287.640 346.275,288.685 346.275 C 289.098 346.275,289.538 346.010,289.662 345.686 C 289.786 345.363,290.132 345.098,290.430 345.098 C 290.728 345.098,291.332 344.789,291.773 344.412 C 292.214 344.034,292.701 343.717,292.856 343.706 C 293.629 343.653,294.902 343.042,294.902 342.723 C 294.902 342.525,295.614 342.248,296.485 342.109 C 297.356 341.970,298.282 341.559,298.544 341.196 C 298.806 340.833,299.328 340.421,299.706 340.281 C 300.083 340.140,300.392 339.760,300.392 339.436 C 300.392 339.089,300.620 338.936,300.950 339.062 C 301.573 339.301,302.900 338.683,304.038 337.623 C 304.453 337.236,305.035 337.014,305.332 337.128 C 305.664 337.255,306.024 336.933,306.268 336.291 C 306.487 335.717,306.842 335.356,307.058 335.490 C 307.274 335.623,307.451 335.535,307.451 335.294 C 307.451 335.053,307.619 334.959,307.823 335.086 C 308.028 335.212,308.387 334.958,308.622 334.521 C 308.872 334.052,309.444 333.725,310.014 333.725 C 310.612 333.725,310.980 333.501,310.980 333.137 C 310.980 332.814,311.203 332.549,311.474 332.549 C 311.746 332.549,312.189 332.196,312.458 331.765 C 312.727 331.333,313.185 330.980,313.475 330.980 C 313.764 330.980,314.563 330.444,315.248 329.789 C 315.934 329.133,316.668 328.703,316.878 328.833 C 317.088 328.963,317.366 328.793,317.496 328.456 C 317.625 328.119,317.977 327.843,318.277 327.843 C 318.578 327.843,318.824 327.490,318.824 327.059 C 318.824 326.556,319.085 326.275,319.553 326.275 C 319.954 326.275,320.614 325.833,321.019 325.294 C 321.423 324.755,322.022 324.311,322.348 324.307 C 322.674 324.304,323.673 323.554,324.567 322.641 C 326.289 320.882,328.039 319.348,328.039 319.597 C 328.039 319.679,328.762 319.009,329.645 318.108 C 330.528 317.208,331.454 316.471,331.704 316.471 C 331.953 316.471,332.157 316.245,332.157 315.969 C 332.157 315.693,332.510 315.213,332.941 314.902 C 333.373 314.591,333.725 314.081,333.725 313.770 C 333.725 313.458,333.835 313.312,333.968 313.445 C 334.308 313.785,335.490 312.529,335.492 311.826 C 335.493 311.506,336.111 311.034,336.864 310.776 C 337.785 310.460,338.197 310.095,338.120 309.663 C 338.057 309.309,338.199 309.020,338.437 309.020 C 338.675 309.020,338.744 308.816,338.590 308.567 C 338.412 308.279,338.483 308.221,338.784 308.407 C 339.406 308.791,341.253 306.660,340.962 305.894 C 340.841 305.577,340.861 305.437,341.006 305.582 C 341.326 305.901,342.101 305.164,342.470 304.191 C 342.618 303.800,342.891 303.573,343.075 303.687 C 343.260 303.801,343.641 303.466,343.922 302.941 C 344.202 302.417,344.594 302.087,344.791 302.210 C 344.989 302.332,345.118 302.193,345.078 301.902 C 344.916 300.723,345.145 300.392,346.124 300.392 C 346.957 300.392,347.112 300.245,346.945 299.607 C 346.832 299.176,346.900 298.921,347.095 299.042 C 347.412 299.238,347.521 298.945,347.416 298.173 C 347.375 297.872,348.648 297.084,349.198 297.069 C 349.404 297.063,349.669 296.673,349.786 296.202 C 349.904 295.731,350.379 294.912,350.842 294.382 C 351.305 293.853,351.790 293.091,351.920 292.690 C 352.049 292.289,352.776 291.286,353.534 290.462 C 354.293 289.638,354.821 288.814,354.708 288.631 C 354.595 288.448,354.962 287.937,355.523 287.495 C 356.085 287.053,356.477 286.491,356.395 286.245 C 356.313 285.999,356.826 285.165,357.535 284.391 C 358.244 283.617,358.824 282.708,358.824 282.371 C 358.824 282.033,359.167 281.543,359.587 281.280 C 360.057 280.987,360.291 280.494,360.196 279.999 C 360.111 279.557,360.190 279.287,360.372 279.399 C 360.701 279.603,361.357 278.500,361.239 277.941 C 361.204 277.779,361.441 277.647,361.765 277.647 C 362.123 277.647,362.353 277.282,362.353 276.715 C 362.353 276.202,362.616 275.564,362.937 275.298 C 363.258 275.031,363.436 274.677,363.333 274.510 C 363.230 274.343,363.409 273.988,363.730 273.722 C 364.051 273.455,364.314 272.989,364.314 272.685 C 364.314 272.381,364.578 272.031,364.902 271.907 C 365.225 271.782,365.490 271.258,365.490 270.742 C 365.490 270.226,365.686 269.804,365.924 269.804 C 366.163 269.804,366.259 269.544,366.137 269.227 C 366.015 268.910,366.185 268.380,366.515 268.051 C 366.845 267.721,366.980 267.451,366.816 267.451 C 366.651 267.451,366.859 267.173,367.278 266.834 C 367.697 266.494,367.775 266.331,367.451 266.471 C 367.125 266.612,367.190 266.458,367.598 266.126 C 368.018 265.785,368.234 265.268,368.101 264.921 C 367.956 264.543,368.085 264.314,368.444 264.314 C 368.760 264.314,369.020 264.127,369.020 263.898 C 369.020 263.670,368.873 263.574,368.693 263.685 C 368.513 263.796,368.366 263.638,368.366 263.333 C 368.366 263.029,368.513 262.870,368.693 262.982 C 368.873 263.093,369.020 262.898,369.020 262.549 C 369.020 262.164,369.200 262.026,369.478 262.198 C 369.787 262.389,369.855 262.268,369.687 261.829 C 369.549 261.470,369.563 261.176,369.718 261.176 C 369.873 261.175,370.039 260.602,370.087 259.901 C 370.137 259.155,370.521 258.343,371.012 257.941 C 371.542 257.508,371.655 257.253,371.318 257.249 C 370.887 257.244,370.882 257.181,371.295 256.919 C 371.575 256.741,371.857 256.109,371.920 255.515 C 371.983 254.921,372.212 254.320,372.429 254.178 C 372.964 253.829,372.932 248.897,372.392 248.535 C 372.094 248.336,372.112 248.245,372.451 248.241 C 373.169 248.233,373.169 204.471,372.451 204.181 C 372.059 204.023,372.059 203.977,372.451 203.953 C 373.047 203.915,373.094 202.020,372.534 200.548 C 372.310 199.959,372.272 199.374,372.451 199.248 C 372.876 198.948,373.010 195.294,372.596 195.294 C 372.326 195.294,370.959 192.516,370.827 191.699 C 370.803 191.556,370.652 191.306,370.490 191.144 C 370.328 190.982,370.196 190.438,370.196 189.935 C 370.196 189.103,368.896 187.313,368.546 187.663 C 368.466 187.744,368.372 187.444,368.339 186.998 C 368.305 186.552,368.003 185.884,367.668 185.513 C 367.333 185.143,367.059 184.634,367.059 184.381 C 367.059 184.128,366.706 183.922,366.275 183.922 C 365.766 183.922,365.490 183.660,365.490 183.179 C 365.490 182.508,364.529 181.754,363.847 181.891 C 363.699 181.920,363.466 181.595,363.331 181.169 C 363.195 180.742,362.743 180.392,362.327 180.392 C 361.910 180.392,361.569 180.127,361.569 179.804 C 361.569 179.480,361.304 179.216,360.980 179.216 C 360.657 179.216,360.392 179.039,360.392 178.824 C 360.392 178.608,360.260 178.452,360.098 178.478 C 359.126 178.631,358.417 178.380,358.669 177.973 C 358.858 177.666,358.740 177.595,358.312 177.759 C 357.960 177.894,357.568 177.836,357.440 177.630 C 357.313 177.424,356.942 177.255,356.616 177.255 C 356.289 177.255,355.748 176.980,355.412 176.644 C 355.076 176.308,354.550 176.130,354.243 176.247 C 353.924 176.370,353.791 176.290,353.933 176.061 C 354.087 175.811,353.792 175.730,353.148 175.847 C 352.460 175.971,352.040 175.837,351.889 175.445 C 351.765 175.122,351.412 174.953,351.105 175.071 C 350.799 175.189,350.651 175.117,350.778 174.911 C 350.924 174.676,342.347 174.536,327.643 174.532 C 309.261 174.526,304.335 174.628,304.549 175.008 C 304.757 175.377,304.697 175.375,304.293 175.000 C 303.693 174.443,302.192 174.325,302.524 174.861 C 302.643 175.054,302.486 175.310,302.175 175.429 C 301.797 175.574,301.681 175.457,301.827 175.078 C 301.947 174.766,301.949 174.510,301.833 174.510 C 301.717 174.510,301.517 174.839,301.389 175.241 M125.896 181.176 C 126.267 181.176,126.790 181.441,127.059 181.765 C 127.327 182.088,127.878 182.353,128.283 182.353 C 129.247 182.353,129.294 183.897,128.333 183.984 C 126.958 184.108,126.177 183.902,125.243 183.167 C 124.719 182.755,123.601 182.301,122.758 182.159 C 121.646 181.971,121.284 181.745,121.440 181.337 C 121.559 181.028,121.441 180.515,121.178 180.198 C 120.806 179.749,121.204 179.794,122.960 180.399 C 124.203 180.826,125.525 181.176,125.896 181.176 M325.415 182.364 C 343.748 182.334,344.389 182.358,344.577 183.080 C 344.736 183.687,345.277 183.877,347.475 184.093 C 351.481 184.488,351.599 185.257,347.714 185.645 C 345.547 185.861,344.706 185.641,344.706 184.860 C 344.706 184.560,344.485 184.313,344.216 184.311 C 343.946 184.310,335.343 184.266,325.098 184.213 C 306.577 184.118,306.465 184.113,305.621 183.268 C 304.723 182.371,304.846 181.780,305.850 182.166 C 306.179 182.292,314.983 182.381,325.415 182.364 M118.039 184.948 C 118.039 185.261,117.636 185.490,117.082 185.490 C 116.083 185.490,115.490 184.949,115.850 184.366 C 116.174 183.841,118.039 184.337,118.039 184.948 M300.876 184.463 C 301.838 185.193,301.339 185.490,299.150 185.490 C 297.032 185.490,296.710 185.073,298.333 184.431 C 299.787 183.857,300.083 183.861,300.876 184.463 M142.125 190.434 C 142.466 190.565,142.745 191.019,142.745 191.443 C 142.745 192.532,141.408 192.202,141.247 191.074 C 141.112 190.125,141.184 190.073,142.125 190.434 M293.528 196.859 C 293.825 197.793,293.497 198.431,292.722 198.431 C 292.127 198.431,291.996 197.738,292.395 196.699 C 292.721 195.848,293.230 195.921,293.528 196.859 M358.828 196.871 C 359.304 197.760,359.049 198.431,358.235 198.431 C 357.481 198.431,357.159 197.784,357.452 196.859 C 357.769 195.860,358.289 195.865,358.828 196.871 M143.068 199.346 C 143.152 199.778,142.933 200.000,142.424 200.000 C 141.549 200.000,140.975 198.973,141.689 198.685 C 142.421 198.390,142.930 198.634,143.068 199.346 M107.843 227.014 C 107.843 227.206,107.318 227.439,106.676 227.533 C 105.742 227.670,105.595 227.601,105.940 227.186 C 106.422 226.604,107.843 226.476,107.843 227.014 M53.394 250.292 C 52.945 250.742,52.042 250.307,52.359 249.794 C 52.477 249.603,52.845 249.550,53.176 249.677 C 53.569 249.828,53.645 250.041,53.394 250.292 M358.824 249.816 C 358.824 250.286,357.717 250.789,357.395 250.467 C 357.051 250.123,357.634 249.412,358.258 249.412 C 358.569 249.412,358.824 249.594,358.824 249.816 M62.628 252.783 C 62.868 253.509,59.750 255.294,58.242 255.294 C 56.831 255.294,56.285 253.332,57.451 252.448 C 58.039 252.001,62.465 252.288,62.628 252.783 M362.315 257.549 C 361.475 260.429,361.252 261.245,361.206 261.612 C 361.190 261.744,360.735 261.768,360.196 261.665 C 359.145 261.464,358.865 260.502,359.758 260.159 C 360.089 260.032,360.309 259.339,360.322 258.378 C 360.349 256.412,360.965 255.623,363.014 254.927 C 363.055 254.913,362.740 256.093,362.315 257.549 M158.039 258.039 C 158.039 258.255,157.697 258.431,157.278 258.431 C 156.859 258.431,156.408 258.255,156.275 258.039 C 156.137 257.817,156.467 257.647,157.036 257.647 C 157.588 257.647,158.039 257.824,158.039 258.039 M137.207 260.746 C 137.504 260.935,137.626 261.285,137.478 261.525 C 137.152 262.053,133.472 262.111,133.152 261.593 C 132.593 260.688,135.995 259.979,137.207 260.746 M268.627 260.932 C 268.627 261.725,267.648 262.404,266.912 262.122 C 266.158 261.832,266.067 260.933,266.765 260.652 C 267.725 260.265,268.627 260.400,268.627 260.932 M123.671 268.465 C 125.234 269.065,123.226 271.254,120.891 271.495 C 119.709 271.617,118.450 271.981,118.093 272.304 C 117.004 273.290,113.946 272.721,114.947 271.719 C 115.354 271.313,115.840 270.980,116.029 270.980 C 116.560 270.980,119.716 269.480,120.565 268.824 C 121.353 268.214,122.633 268.067,123.671 268.465 M181.710 271.421 C 182.145 271.826,182.776 272.178,183.113 272.203 C 183.953 272.267,181.628 272.837,180.294 272.895 C 179.311 272.937,179.216 272.818,179.216 271.542 C 179.216 269.973,180.110 269.929,181.710 271.421 M250.980 271.373 C 250.980 271.588,250.716 271.765,250.392 271.765 C 250.069 271.765,249.804 271.588,249.804 271.373 C 249.804 271.157,250.069 270.980,250.392 270.980 C 250.716 270.980,250.980 271.157,250.980 271.373 M127.843 273.922 C 127.843 274.245,127.677 274.510,127.474 274.510 C 126.980 274.510,126.625 273.897,126.939 273.584 C 127.380 273.142,127.843 273.315,127.843 273.922 M187.624 273.934 C 188.329 274.467,188.250 274.510,186.569 274.510 C 184.843 274.510,184.037 274.133,184.586 273.584 C 185.034 273.136,186.844 273.344,187.624 273.934 M245.685 273.724 C 246.001 274.235,244.148 275.073,243.365 274.772 C 242.383 274.395,243.097 273.333,244.333 273.333 C 244.944 273.333,245.553 273.509,245.685 273.724 M255.294 273.922 C 255.294 274.245,255.029 274.510,254.706 274.510 C 254.382 274.510,254.118 274.245,254.118 273.922 C 254.118 273.598,254.382 273.333,254.706 273.333 C 255.029 273.333,255.294 273.598,255.294 273.922 M353.725 275.490 C 353.725 275.814,353.461 276.078,353.137 276.078 C 352.525 276.078,352.359 275.615,352.810 275.163 C 353.262 274.712,353.725 274.878,353.725 275.490 M103.137 280.118 C 103.137 281.173,102.462 281.961,101.556 281.961 C 100.682 281.961,100.830 280.439,101.771 279.751 C 102.806 278.994,103.137 279.083,103.137 280.118 M349.200 282.451 C 348.774 283.872,347.843 284.691,347.843 283.646 C 347.843 282.381,348.254 281.569,348.892 281.569 C 349.303 281.569,349.390 281.818,349.200 282.451 M88.899 288.208 C 89.008 288.625,89.344 289.060,89.646 289.176 C 90.516 289.510,90.387 292.251,89.510 292.084 C 89.030 291.993,88.787 291.512,88.702 290.487 C 88.593 289.174,88.466 289.020,87.493 289.020 C 85.999 289.020,85.681 288.570,86.752 287.975 C 88.027 287.268,88.671 287.338,88.899 288.208 M103.452 300.856 C 103.641 301.855,102.168 302.504,101.416 301.753 C 101.087 301.423,100.921 300.885,101.047 300.556 C 101.357 299.748,103.287 299.989,103.452 300.856 M333.652 300.887 C 333.741 301.352,333.532 301.569,332.993 301.569 C 332.094 301.569,331.596 300.983,331.974 300.370 C 332.356 299.753,333.501 300.105,333.652 300.887 M100.174 304.902 C 100.495 306.056,100.841 306.504,101.482 306.596 C 102.457 306.736,103.256 307.928,103.055 308.942 C 102.947 309.486,102.745 309.400,101.952 308.473 C 101.417 307.848,100.216 306.574,99.283 305.642 C 97.570 303.932,97.431 302.991,98.925 303.213 C 99.497 303.298,99.866 303.797,100.174 304.902 M115.882 313.524 C 115.882 314.389,114.663 314.820,114.024 314.181 C 113.365 313.522,114.015 312.480,114.998 312.620 C 115.577 312.702,115.882 313.014,115.882 313.524 M108.538 313.652 C 108.773 314.358,107.962 314.209,107.689 313.497 C 107.542 313.115,107.630 312.935,107.916 313.031 C 108.173 313.116,108.452 313.396,108.538 313.652 M329.938 323.746 C 329.565 324.717,329.999 326.070,330.728 326.209 C 331.769 326.408,332.403 325.671,331.807 324.953 C 331.486 324.566,331.466 324.302,331.746 324.129 C 332.478 323.677,332.182 323.235,331.145 323.235 C 330.589 323.235,330.046 323.465,329.938 323.746 M295.265 326.044 C 295.594 326.440,295.603 326.672,295.294 326.863 C 294.614 327.283,293.714 326.761,293.970 326.093 C 294.258 325.343,294.670 325.327,295.265 326.044 M125.294 326.275 C 125.427 326.490,125.163 326.667,124.706 326.667 C 124.249 326.667,123.984 326.490,124.118 326.275 C 124.251 326.059,124.516 325.882,124.706 325.882 C 124.896 325.882,125.161 326.059,125.294 326.275 M317.255 334.104 C 317.255 335.480,318.117 336.044,319.044 335.274 C 320.003 334.478,319.589 333.158,318.333 333.013 C 317.362 332.901,317.255 333.010,317.255 334.104 M116.291 336.764 C 116.065 337.355,117.006 337.847,117.628 337.463 C 117.854 337.323,118.039 336.965,118.039 336.668 C 118.039 335.984,116.559 336.066,116.291 336.764 M287.059 338.290 C 287.059 338.781,285.673 339.583,284.804 339.595 C 283.865 339.609,283.571 338.638,284.412 338.299 C 285.137 338.006,287.059 338.000,287.059 338.290 M280.110 341.457 C 280.003 341.734,279.487 341.961,278.962 341.961 C 278.202 341.961,278.104 341.858,278.479 341.457 C 278.738 341.179,279.255 340.952,279.627 340.952 C 280.017 340.952,280.221 341.166,280.110 341.457 M153.725 342.367 C 153.725 343.036,153.602 343.099,152.963 342.757 C 151.740 342.102,151.631 341.569,152.722 341.569 C 153.470 341.569,153.725 341.772,153.725 342.367 M270.196 345.098 C 270.196 345.472,268.983 345.977,268.719 345.712 C 268.615 345.609,268.634 345.255,268.760 344.925 C 268.987 344.335,270.196 344.481,270.196 345.098 M242.647 351.667 C 242.760 352.005,242.316 352.157,241.209 352.157 C 239.504 352.157,239.016 351.544,240.490 351.253 C 241.807 350.994,242.465 351.120,242.647 351.667 M192.129 352.712 L 193.082 353.240 191.933 353.484 C 190.636 353.759,188.054 353.175,189.020 352.824 C 191.101 352.070,190.977 352.074,192.129 352.712 M204.590 353.324 C 204.779 354.049,205.196 354.105,211.122 354.206 C 216.438 354.297,217.451 354.408,217.451 354.902 C 217.451 355.400,216.493 355.490,211.176 355.488 C 202.165 355.484,194.411 354.446,195.098 353.334 C 195.442 352.776,195.928 352.846,196.639 353.557 C 196.978 353.896,197.255 354.073,197.255 353.950 C 197.255 353.826,197.253 353.593,197.250 353.431 C 197.247 353.270,198.615 353.037,200.289 352.915 C 201.963 352.793,203.570 352.660,203.860 352.621 C 204.150 352.581,204.478 352.898,204.590 353.324 M229.020 352.930 C 231.133 352.980,231.402 353.057,230.595 353.379 C 229.661 353.752,218.095 353.912,217.740 353.557 C 217.028 352.845,218.515 352.568,222.277 352.710 C 224.584 352.797,227.618 352.896,229.020 352.930 M233.333 354.083 C 233.441 354.109,233.265 354.301,232.941 354.510 C 232.058 355.080,230.196 354.990,230.196 354.377 C 230.196 353.936,232.011 353.766,233.333 354.083 " stroke="none" fill="#fc7c04" fill-rule="evenodd"></path><path id="path1" d="M217.941 26.551 C 218.426 26.645,219.221 26.645,219.706 26.551 C 220.191 26.458,219.794 26.381,218.824 26.381 C 217.853 26.381,217.456 26.458,217.941 26.551 M166.680 33.619 C 166.166 34.198,166.179 34.238,166.810 33.996 C 167.198 33.847,167.688 33.725,167.898 33.725 C 168.109 33.725,168.173 33.549,168.039 33.333 C 167.703 32.789,167.350 32.863,166.680 33.619 M256.078 40.392 C 256.078 40.608,256.608 40.784,257.255 40.784 C 257.902 40.784,258.431 40.608,258.431 40.392 C 258.431 40.176,257.902 40.000,257.255 40.000 C 256.608 40.000,256.078 40.176,256.078 40.392 M167.157 41.427 C 165.757 42.018,166.724 42.783,168.725 42.668 C 170.241 42.580,170.784 42.394,170.784 41.961 C 170.784 41.362,168.209 40.982,167.157 41.427 M169.020 41.961 C 169.020 42.176,168.568 42.353,168.016 42.353 C 167.447 42.353,167.117 42.183,167.255 41.961 C 167.388 41.745,167.840 41.569,168.258 41.569 C 168.677 41.569,169.020 41.745,169.020 41.961 M160.045 44.954 C 159.290 45.483,159.073 45.502,158.802 45.063 C 158.622 44.771,158.337 44.669,158.170 44.837 C 157.261 45.746,160.676 46.214,162.622 45.447 C 163.647 45.042,163.670 44.989,162.941 44.690 C 161.731 44.194,161.039 44.257,160.045 44.954 M255.480 44.723 C 255.190 45.192,255.967 46.275,256.594 46.275 C 256.824 46.275,256.687 46.037,256.290 45.746 C 255.892 45.455,255.692 45.014,255.846 44.765 C 255.999 44.517,256.036 44.314,255.929 44.314 C 255.821 44.314,255.619 44.498,255.480 44.723 M258.333 44.597 C 259.594 44.754,260.158 45.490,259.016 45.490 C 258.518 45.490,258.503 45.629,258.918 46.373 C 259.190 46.858,259.447 47.320,259.491 47.400 C 259.535 47.479,259.844 47.271,260.177 46.937 C 261.486 45.629,260.578 44.281,258.451 44.376 L 257.059 44.439 258.333 44.597 M140.392 52.941 C 140.081 53.133,139.957 53.421,140.116 53.580 C 140.275 53.739,140.611 53.663,140.863 53.412 C 141.455 52.819,141.125 52.489,140.392 52.941 M141.071 57.678 C 141.255 58.384,141.132 58.476,140.152 58.365 C 139.504 58.291,139.062 58.025,139.118 57.745 C 139.172 57.475,139.039 57.255,138.824 57.255 C 137.992 57.255,138.482 58.429,139.411 58.662 C 141.056 59.075,142.455 57.849,141.213 57.081 C 141.017 56.961,140.953 57.229,141.071 57.678 M116.078 70.392 C 116.078 71.470,116.487 71.601,117.744 70.929 C 118.547 70.499,118.550 70.468,117.839 69.948 C 116.727 69.136,116.078 69.299,116.078 70.392 M127.116 69.931 C 126.760 70.360,126.789 70.593,127.245 70.973 C 127.725 71.371,127.880 71.340,128.087 70.802 C 128.438 69.885,127.702 69.225,127.116 69.931 M242.757 73.065 C 242.750 73.241,242.930 73.731,243.157 74.154 C 243.559 74.906,244.314 74.852,244.314 74.071 C 244.314 73.856,244.148 73.782,243.946 73.907 C 243.743 74.032,243.396 73.822,243.173 73.440 C 242.951 73.058,242.764 72.889,242.757 73.065 M230.244 97.001 C 229.666 97.698,230.475 100.270,231.082 99.663 C 231.350 99.395,231.270 99.057,230.838 98.625 C 230.017 97.804,230.028 97.392,230.882 96.894 C 231.260 96.674,231.370 96.489,231.126 96.483 C 230.883 96.476,230.486 96.709,230.244 97.001 M235.167 97.413 C 234.922 98.051,235.251 98.504,235.741 98.201 C 236.186 97.926,236.176 96.863,235.728 96.863 C 235.536 96.863,235.283 97.110,235.167 97.413 M86.373 99.819 C 85.892 100.458,85.332 101.181,85.128 101.426 C 84.925 101.671,84.638 102.509,84.492 103.289 L 84.226 104.706 85.798 104.706 C 87.530 104.706,88.009 103.358,87.467 100.015 L 87.246 98.657 86.373 99.819 M89.016 107.132 C 88.450 108.344,88.722 109.412,89.596 109.412 C 90.248 109.412,90.358 108.184,89.824 106.863 C 89.526 106.124,89.479 106.140,89.016 107.132 M192.371 109.938 C 191.840 110.327,191.774 110.547,192.123 110.763 C 192.747 111.149,195.501 110.631,195.051 110.213 C 194.343 109.555,193.073 109.425,192.371 109.938 M101.373 110.196 C 101.239 110.412,101.504 110.588,101.961 110.588 C 102.418 110.588,102.682 110.412,102.549 110.196 C 102.416 109.980,102.151 109.804,101.961 109.804 C 101.771 109.804,101.506 109.980,101.373 110.196 M205.294 110.196 C 205.136 110.451,207.078 110.575,210.859 110.549 C 214.378 110.525,216.280 110.386,215.686 110.196 C 214.236 109.732,205.581 109.732,205.294 110.196 M90.882 111.278 C 90.028 111.467,89.994 111.995,90.816 112.311 C 91.846 112.706,92.549 112.581,92.549 112.003 C 92.549 111.364,91.854 111.062,90.882 111.278 M201.078 111.251 C 199.630 111.629,200.487 112.157,202.549 112.157 C 204.205 112.157,204.706 112.020,204.706 111.569 C 204.706 110.984,202.753 110.813,201.078 111.251 M92.941 112.909 C 92.941 113.363,93.947 113.725,95.209 113.725 C 95.814 113.725,96.082 113.586,95.863 113.385 C 95.325 112.894,92.941 112.506,92.941 112.909 M168.181 122.480 C 168.744 123.162,168.737 123.170,167.079 123.622 C 166.594 123.755,166.598 123.811,167.103 124.005 C 167.429 124.130,168.110 123.919,168.618 123.537 L 169.540 122.841 168.593 122.337 C 167.732 121.877,167.695 121.890,168.181 122.480 M114.608 122.635 C 113.934 122.876,113.989 123.529,114.683 123.529 C 115.332 123.529,115.846 122.883,115.399 122.629 C 115.233 122.535,114.877 122.538,114.608 122.635 M138.333 137.087 C 137.740 137.409,137.255 137.557,137.255 137.415 C 137.255 137.274,136.990 137.379,136.667 137.647 C 135.800 138.366,135.938 138.698,137.301 139.173 C 138.997 139.764,140.161 139.371,140.664 138.039 C 141.308 136.333,140.403 135.964,138.333 137.087 M64.775 146.536 C 64.845 146.896,65.147 147.272,65.447 147.371 C 65.823 147.497,65.891 147.386,65.666 147.012 C 65.392 146.558,65.448 146.559,66.013 147.017 C 66.383 147.317,66.813 147.435,66.970 147.279 C 67.309 146.940,65.962 145.882,65.190 145.882 C 64.892 145.882,64.705 146.177,64.775 146.536 M52.549 146.895 C 52.549 147.588,53.393 147.467,53.636 146.740 C 53.721 146.484,53.511 146.275,53.170 146.275 C 52.828 146.275,52.549 146.554,52.549 146.895 M81.575 156.373 C 81.592 157.227,82.466 157.822,83.771 157.867 L 85.235 157.918 84.088 157.000 C 82.985 156.117,81.562 155.762,81.575 156.373 M78.039 159.412 C 78.039 159.735,78.304 160.000,78.627 160.000 C 78.951 160.000,79.216 159.735,79.216 159.412 C 79.216 159.088,78.951 158.824,78.627 158.824 C 78.304 158.824,78.039 159.088,78.039 159.412 M87.675 159.563 C 87.430 159.959,88.982 160.462,89.486 160.150 C 89.668 160.038,89.715 159.782,89.591 159.581 C 89.304 159.117,87.958 159.104,87.675 159.563 M104.848 169.318 C 104.885 169.788,104.627 169.990,104.020 169.969 C 103.072 169.935,102.969 170.108,103.466 170.891 C 103.711 171.277,103.975 171.222,104.636 170.649 C 105.536 169.868,105.722 169.209,105.142 168.851 C 104.951 168.733,104.819 168.943,104.848 169.318 M121.178 180.198 C 121.441 180.515,121.559 181.028,121.440 181.337 C 121.284 181.745,121.646 181.971,122.758 182.159 C 123.601 182.301,124.719 182.755,125.243 183.167 C 126.177 183.902,126.958 184.108,128.333 183.984 C 129.294 183.897,129.247 182.353,128.283 182.353 C 127.878 182.353,127.327 182.088,127.059 181.765 C 126.790 181.441,126.267 181.176,125.896 181.176 C 125.525 181.176,124.203 180.826,122.960 180.399 C 121.204 179.794,120.806 179.749,121.178 180.198 M125.789 181.838 C 125.414 181.936,124.708 181.940,124.220 181.846 C 123.732 181.752,124.039 181.672,124.902 181.668 C 125.765 181.663,126.164 181.740,125.789 181.838 M305.000 182.190 C 304.874 182.315,305.109 182.757,305.523 183.170 C 306.426 184.073,306.721 184.127,306.416 183.333 C 306.286 182.993,306.415 182.733,306.723 182.718 C 307.015 182.702,306.902 182.538,306.471 182.353 C 305.482 181.928,305.283 181.906,305.000 182.190 M325.980 182.647 C 341.425 182.736,344.314 182.840,344.314 183.305 C 344.314 183.608,344.093 183.945,343.824 184.054 C 343.256 184.283,344.408 184.429,345.973 184.327 C 347.837 184.204,348.826 184.670,347.993 185.279 C 347.404 185.710,347.521 185.748,348.808 185.538 C 351.183 185.152,350.641 184.541,347.578 184.152 C 345.357 183.870,344.725 183.643,344.576 183.074 C 344.396 182.385,343.563 182.357,326.017 182.447 L 307.647 182.541 325.980 182.647 M115.850 184.366 C 115.490 184.949,116.083 185.490,117.082 185.490 C 117.636 185.490,118.039 185.261,118.039 184.948 C 118.039 184.337,116.174 183.841,115.850 184.366 M298.824 184.314 C 298.344 184.623,298.393 184.695,299.085 184.700 C 299.552 184.703,300.004 184.914,300.089 185.169 C 300.181 185.445,300.534 185.520,300.966 185.354 C 301.664 185.086,301.663 185.057,300.943 184.511 C 300.059 183.843,299.616 183.801,298.824 184.314 M316.595 184.215 C 321.517 184.278,329.458 184.278,334.242 184.215 C 339.027 184.153,335.000 184.102,325.294 184.102 C 315.588 184.102,311.674 184.153,316.595 184.215 M141.176 191.004 C 141.176 191.496,141.346 191.706,141.612 191.542 C 141.852 191.393,142.203 191.515,142.391 191.813 C 142.648 192.218,142.735 192.143,142.739 191.513 C 142.742 191.050,142.466 190.565,142.125 190.434 C 141.223 190.088,141.176 190.116,141.176 191.004 M292.395 196.699 C 291.996 197.738,292.127 198.431,292.722 198.431 C 293.497 198.431,293.825 197.793,293.528 196.859 C 293.230 195.921,292.721 195.848,292.395 196.699 M357.452 196.859 C 357.159 197.784,357.481 198.431,358.235 198.431 C 359.049 198.431,359.304 197.760,358.828 196.871 C 358.289 195.865,357.769 195.860,357.452 196.859 M293.333 197.451 C 293.333 197.775,293.157 198.039,292.941 198.039 C 292.725 198.039,292.549 197.775,292.549 197.451 C 292.549 197.127,292.725 196.863,292.941 196.863 C 293.157 196.863,293.333 197.127,293.333 197.451 M141.689 198.685 C 140.975 198.973,141.549 200.000,142.424 200.000 C 142.933 200.000,143.152 199.778,143.068 199.346 C 142.930 198.634,142.421 198.390,141.689 198.685 M105.940 227.186 C 105.595 227.601,105.742 227.670,106.676 227.533 C 107.318 227.439,107.843 227.206,107.843 227.014 C 107.843 226.476,106.422 226.604,105.940 227.186 M52.359 249.794 C 52.042 250.307,52.945 250.742,53.394 250.292 C 53.645 250.041,53.569 249.828,53.176 249.677 C 52.845 249.550,52.477 249.603,52.359 249.794 M357.435 249.830 C 357.293 250.060,357.275 250.347,357.395 250.467 C 357.717 250.789,358.824 250.286,358.824 249.816 C 358.824 249.284,357.766 249.294,357.435 249.830 M57.451 252.448 C 56.285 253.332,56.831 255.294,58.242 255.294 C 59.750 255.294,62.868 253.509,62.628 252.783 C 62.465 252.288,58.039 252.001,57.451 252.448 M61.641 253.280 C 61.164 253.583,59.216 253.431,59.216 253.092 C 59.216 253.009,59.877 252.944,60.686 252.947 C 61.624 252.951,61.970 253.072,61.641 253.280 M362.143 255.275 C 360.873 255.790,360.345 256.689,360.322 258.378 C 360.309 259.339,360.089 260.032,359.758 260.159 C 358.865 260.502,359.145 261.464,360.196 261.665 C 360.735 261.768,361.190 261.744,361.206 261.612 C 361.252 261.245,361.475 260.429,362.315 257.549 C 362.740 256.093,363.055 254.913,363.014 254.927 C 362.974 254.940,362.582 255.097,362.143 255.275 M156.275 258.039 C 156.408 258.255,156.859 258.431,157.278 258.431 C 157.697 258.431,158.039 258.255,158.039 258.039 C 158.039 257.824,157.588 257.647,157.036 257.647 C 156.467 257.647,156.137 257.817,156.275 258.039 M135.000 260.673 C 136.451 260.893,136.377 261.569,134.902 261.569 C 134.255 261.569,133.725 261.382,133.725 261.153 C 133.725 260.925,133.546 260.849,133.327 260.984 C 132.504 261.493,133.445 261.961,135.294 261.961 C 137.244 261.961,138.183 261.365,137.207 260.746 C 136.910 260.558,136.049 260.428,135.294 260.457 C 134.115 260.502,134.074 260.533,135.000 260.673 M266.275 261.331 C 266.275 261.631,266.564 261.988,266.919 262.124 C 267.813 262.467,267.835 262.274,266.993 261.471 C 266.446 260.948,266.275 260.915,266.275 261.331 M120.565 268.824 C 119.716 269.480,116.560 270.980,116.029 270.980 C 115.840 270.980,115.354 271.313,114.947 271.719 C 113.946 272.721,117.004 273.290,118.093 272.304 C 118.450 271.981,119.709 271.617,120.891 271.495 C 122.844 271.293,123.095 271.156,123.654 269.984 C 124.497 268.216,122.380 267.421,120.565 268.824 M121.176 270.588 C 121.176 270.804,120.779 270.983,120.294 270.986 C 119.809 270.989,118.971 271.108,118.431 271.250 C 117.551 271.482,117.506 271.442,117.989 270.852 C 118.570 270.144,121.176 269.928,121.176 270.588 M179.216 271.542 C 179.216 272.818,179.311 272.937,180.294 272.895 C 181.628 272.837,183.953 272.267,183.113 272.203 C 182.776 272.178,182.145 271.826,181.710 271.421 C 180.110 269.929,179.216 269.973,179.216 271.542 M249.804 271.373 C 249.804 271.588,250.069 271.765,250.392 271.765 C 250.716 271.765,250.980 271.588,250.980 271.373 C 250.980 271.157,250.716 270.980,250.392 270.980 C 250.069 270.980,249.804 271.157,249.804 271.373 M126.939 273.584 C 126.625 273.897,126.980 274.510,127.474 274.510 C 127.677 274.510,127.843 274.245,127.843 273.922 C 127.843 273.315,127.380 273.142,126.939 273.584 M184.586 273.584 C 184.037 274.133,184.843 274.510,186.569 274.510 C 188.250 274.510,188.329 274.467,187.624 273.934 C 186.844 273.344,185.034 273.136,184.586 273.584 M242.990 273.936 C 242.856 274.286,243.014 274.638,243.365 274.772 C 244.148 275.073,246.001 274.235,245.685 273.724 C 245.301 273.102,243.248 273.264,242.990 273.936 M352.810 275.163 C 352.359 275.615,352.525 276.078,353.137 276.078 C 353.461 276.078,353.725 275.814,353.725 275.490 C 353.725 274.878,353.262 274.712,352.810 275.163 M101.771 279.751 C 100.830 280.439,100.682 281.961,101.556 281.961 C 102.462 281.961,103.137 281.173,103.137 280.118 C 103.137 279.083,102.806 278.994,101.771 279.751 M348.081 282.189 C 347.950 282.530,347.843 283.186,347.843 283.646 C 347.843 284.691,348.774 283.872,349.200 282.451 C 349.511 281.412,348.473 281.169,348.081 282.189 M86.752 287.975 C 85.819 288.494,85.959 289.024,87.026 289.014 C 87.533 289.009,87.547 288.944,87.105 288.664 C 86.682 288.396,86.752 288.261,87.429 288.046 C 88.474 287.715,89.031 288.133,88.224 288.643 C 87.873 288.865,87.829 289.010,88.114 289.014 C 88.370 289.017,88.635 289.680,88.702 290.487 C 88.787 291.512,89.030 291.993,89.510 292.084 C 90.387 292.251,90.516 289.510,89.646 289.176 C 89.344 289.060,89.008 288.625,88.899 288.208 C 88.671 287.338,88.027 287.268,86.752 287.975 M331.974 300.370 C 331.596 300.983,332.094 301.569,332.993 301.569 C 333.532 301.569,333.741 301.352,333.652 300.887 C 333.501 300.105,332.356 299.753,331.974 300.370 M97.856 303.508 C 97.550 304.004,101.601 308.233,102.392 308.241 C 102.842 308.246,102.847 308.307,102.418 308.579 C 101.997 308.846,102.016 308.957,102.516 309.149 C 102.939 309.311,103.137 309.165,103.137 308.690 C 103.137 307.738,102.318 306.761,101.384 306.599 C 100.865 306.508,100.468 305.951,100.174 304.899 C 99.736 303.331,98.445 302.556,97.856 303.508 M107.689 313.497 C 107.820 313.838,108.099 314.118,108.310 314.118 C 108.825 314.118,108.503 313.226,107.916 313.031 C 107.630 312.935,107.542 313.115,107.689 313.497 M293.970 326.093 C 293.714 326.761,294.614 327.283,295.294 326.863 C 295.603 326.672,295.594 326.440,295.265 326.044 C 294.670 325.327,294.258 325.343,293.970 326.093 M124.118 326.275 C 123.984 326.490,124.249 326.667,124.706 326.667 C 125.163 326.667,125.427 326.490,125.294 326.275 C 125.161 326.059,124.896 325.882,124.706 325.882 C 124.516 325.882,124.251 326.059,124.118 326.275 M284.412 338.299 C 284.142 338.408,283.922 338.747,283.922 339.052 C 283.922 339.667,285.697 339.834,286.056 339.252 C 286.177 339.057,285.878 338.982,285.393 339.085 C 284.532 339.269,284.529 339.258,285.271 338.657 C 286.031 338.041,285.549 337.840,284.412 338.299 M278.479 341.457 C 278.104 341.858,278.202 341.961,278.962 341.961 C 279.487 341.961,280.003 341.734,280.110 341.457 C 280.221 341.166,280.017 340.952,279.627 340.952 C 279.255 340.952,278.738 341.179,278.479 341.457 M151.959 341.959 C 152.553 342.918,153.725 343.189,153.725 342.367 C 153.725 341.772,153.470 341.569,152.722 341.569 C 152.156 341.569,151.824 341.739,151.959 341.959 M268.760 344.925 C 268.462 345.702,268.746 345.963,269.552 345.654 C 270.361 345.343,270.379 344.860,269.593 344.558 C 269.246 344.425,268.892 344.581,268.760 344.925 M240.490 351.253 C 239.016 351.544,239.504 352.157,241.209 352.157 C 242.316 352.157,242.760 352.005,242.647 351.667 C 242.465 351.120,241.807 350.994,240.490 351.253 M190.000 352.436 C 188.418 352.817,188.582 353.267,190.247 353.113 C 191.590 352.988,191.749 353.029,190.980 353.301 C 189.842 353.703,190.732 353.834,192.107 353.466 L 193.038 353.217 192.107 352.701 C 191.595 352.417,191.088 352.199,190.980 352.216 C 190.873 352.234,190.431 352.333,190.000 352.436 M200.289 352.915 C 198.615 353.037,197.247 353.270,197.250 353.431 C 197.253 353.593,197.255 353.826,197.255 353.950 C 197.255 354.073,196.978 353.896,196.639 353.557 C 195.928 352.846,195.442 352.776,195.098 353.334 C 194.716 353.952,196.634 354.492,200.706 354.914 C 203.163 355.169,204.540 355.170,204.696 354.918 C 204.828 354.704,207.453 354.479,210.604 354.411 L 216.275 354.290 210.536 354.204 C 205.165 354.123,204.784 354.067,204.592 353.333 C 204.479 352.902,204.150 352.581,203.860 352.621 C 203.570 352.660,201.963 352.793,200.289 352.915 M217.906 352.813 C 217.371 353.347,217.680 353.725,218.651 353.725 C 219.220 353.725,219.549 353.556,219.412 353.333 C 219.277 353.115,219.570 352.944,220.075 352.947 C 220.803 352.952,220.865 353.027,220.392 353.333 C 219.428 353.957,229.191 353.951,230.735 353.327 C 231.340 353.083,230.869 352.974,229.020 352.930 C 227.618 352.896,224.602 352.798,222.318 352.711 C 220.034 352.625,218.049 352.670,217.906 352.813 M230.196 354.377 C 230.196 354.990,232.058 355.080,232.941 354.510 C 233.622 354.070,233.612 354.065,231.667 353.944 C 230.654 353.880,230.196 354.015,230.196 354.377 M216.852 354.459 C 217.804 355.120,216.778 355.275,210.588 355.405 L 204.902 355.524 211.176 355.507 C 216.320 355.493,217.451 355.390,217.451 354.935 C 217.451 354.629,217.186 354.307,216.863 354.219 C 216.348 354.078,216.347 354.108,216.852 354.459 " stroke="none" fill="#f98405" fill-rule="evenodd"></path><path id="path2" d="M167.255 41.961 C 167.117 42.183,167.447 42.353,168.016 42.353 C 168.568 42.353,169.020 42.176,169.020 41.961 C 169.020 41.745,168.677 41.569,168.258 41.569 C 167.840 41.569,167.388 41.745,167.255 41.961 M255.882 44.706 C 255.267 45.702,256.712 46.175,258.725 45.635 C 259.819 45.342,259.886 44.706,258.824 44.706 C 258.392 44.706,258.039 44.882,258.039 45.098 C 258.039 45.314,257.598 45.490,257.059 45.490 C 255.940 45.490,255.733 44.854,256.765 44.584 C 257.383 44.422,257.386 44.400,256.788 44.359 C 256.423 44.334,256.016 44.490,255.882 44.706 M139.245 57.416 C 138.775 57.982,139.384 58.786,139.895 58.275 C 140.025 58.145,139.914 58.039,139.650 58.039 C 139.386 58.039,139.288 57.847,139.433 57.613 C 139.578 57.378,140.030 57.274,140.437 57.380 C 140.844 57.487,141.079 57.414,140.958 57.218 C 140.630 56.689,139.766 56.788,139.245 57.416 M242.899 71.930 C 242.624 72.645,243.450 74.213,243.941 73.909 C 244.146 73.783,244.311 73.381,244.308 73.016 C 244.303 72.494,244.230 72.466,243.965 72.885 C 243.534 73.565,242.966 72.776,243.286 71.942 C 243.406 71.629,243.417 71.373,243.309 71.373 C 243.201 71.373,243.016 71.623,242.899 71.930 M230.414 97.220 C 230.144 97.657,230.556 98.824,230.980 98.824 C 231.296 98.824,231.765 97.867,231.765 97.223 C 231.765 96.757,230.702 96.754,230.414 97.220 M167.059 122.375 C 166.574 122.707,166.609 122.758,167.255 122.663 C 167.739 122.593,167.998 122.748,167.931 123.068 C 167.872 123.354,168.013 123.471,168.245 123.328 C 168.540 123.145,168.528 122.902,168.206 122.514 C 167.665 121.862,167.787 121.877,167.059 122.375 M103.137 169.032 C 103.137 169.975,104.179 170.488,104.811 169.856 C 105.142 169.525,105.128 169.287,104.756 168.922 C 104.357 168.529,104.283 168.539,104.384 168.971 C 104.453 169.267,104.262 169.600,103.960 169.709 C 103.561 169.854,103.471 169.679,103.629 169.072 C 103.750 168.612,103.688 168.235,103.493 168.235 C 103.297 168.235,103.137 168.594,103.137 169.032 M124.220 181.846 C 124.708 181.940,125.414 181.936,125.789 181.838 C 126.164 181.740,125.765 181.663,124.902 181.668 C 124.039 181.672,123.732 181.752,124.220 181.846 M344.978 184.565 C 344.212 185.330,346.493 185.833,348.040 185.240 C 348.561 185.040,348.587 184.922,348.170 184.657 C 347.555 184.267,345.340 184.203,344.978 184.565 M298.235 185.098 C 298.369 185.314,298.820 185.490,299.239 185.490 C 299.657 185.490,300.000 185.314,300.000 185.098 C 300.000 184.882,299.548 184.706,298.996 184.706 C 298.427 184.706,298.098 184.876,298.235 185.098 M292.549 197.451 C 292.549 197.775,292.725 198.039,292.941 198.039 C 293.157 198.039,293.333 197.775,293.333 197.451 C 293.333 197.127,293.157 196.863,292.941 196.863 C 292.725 196.863,292.549 197.127,292.549 197.451 M59.216 253.092 C 59.216 253.431,61.164 253.583,61.641 253.280 C 61.970 253.072,61.624 252.951,60.686 252.947 C 59.877 252.944,59.216 253.009,59.216 253.092 M267.549 260.640 C 268.394 260.888,268.441 261.447,267.639 261.696 C 267.223 261.825,267.252 261.862,267.737 261.817 C 268.693 261.730,268.616 260.618,267.647 260.518 C 267.038 260.455,267.016 260.482,267.549 260.640 M133.725 261.176 C 133.725 261.392,134.255 261.569,134.902 261.569 C 135.549 261.569,136.078 261.392,136.078 261.176 C 136.078 260.961,135.549 260.784,134.902 260.784 C 134.255 260.784,133.725 260.961,133.725 261.176 M117.989 270.852 C 117.506 271.442,117.551 271.482,118.431 271.250 C 118.971 271.108,119.809 270.989,120.294 270.986 C 120.779 270.983,121.176 270.804,121.176 270.588 C 121.176 269.928,118.570 270.144,117.989 270.852 M254.193 273.755 C 254.270 273.987,254.501 274.176,254.706 274.176 C 254.911 274.176,255.142 273.987,255.219 273.755 C 255.296 273.523,255.065 273.333,254.706 273.333 C 254.346 273.333,254.116 273.523,254.193 273.755 M189.902 353.212 C 190.279 353.310,190.897 353.310,191.275 353.212 C 191.652 353.113,191.343 353.032,190.588 353.032 C 189.833 353.032,189.525 353.113,189.902 353.212 M210.490 354.422 C 202.618 354.570,202.843 355.294,210.761 355.294 C 214.092 355.294,216.914 355.136,217.033 354.943 C 217.386 354.373,216.573 354.308,210.490 354.422 " stroke="none" fill="#f07f1e" fill-rule="evenodd"></path><path id="path3" d="M101.644 300.814 C 101.721 301.046,101.952 301.235,102.157 301.235 C 102.362 301.235,102.593 301.046,102.670 300.814 C 102.747 300.582,102.516 300.392,102.157 300.392 C 101.797 300.392,101.567 300.582,101.644 300.814 " stroke="none" fill="#e08420" fill-rule="evenodd"></path><path id="path4" d="M256.078 45.098 C 256.078 45.314,256.520 45.490,257.059 45.490 C 257.598 45.490,258.039 45.314,258.039 45.098 C 258.039 44.882,257.598 44.706,257.059 44.706 C 256.520 44.706,256.078 44.882,256.078 45.098 M139.437 57.606 C 139.175 58.030,140.315 58.526,140.826 58.209 C 141.026 58.086,141.088 57.821,140.964 57.620 C 140.676 57.155,139.721 57.146,139.437 57.606 M243.311 71.876 C 242.943 72.837,243.548 73.594,244.016 72.758 C 244.267 72.310,244.253 71.939,243.975 71.661 C 243.677 71.363,243.485 71.425,243.311 71.876 M167.096 122.722 C 166.706 122.963,166.695 123.109,167.051 123.329 C 167.309 123.488,167.696 123.441,167.911 123.226 C 168.423 122.715,167.765 122.308,167.096 122.722 M306.763 183.231 C 306.974 183.864,343.921 183.965,343.922 183.333 C 343.922 183.079,337.372 182.905,325.260 182.839 C 310.393 182.758,306.632 182.838,306.763 183.231 M101.351 300.426 C 101.207 300.661,101.295 301.058,101.548 301.309 C 101.898 301.656,101.948 301.610,101.759 301.113 C 101.593 300.677,101.749 300.399,102.226 300.276 C 102.839 300.117,102.847 300.085,102.278 300.045 C 101.913 300.020,101.496 300.192,101.351 300.426 " stroke="none" fill="#ec8412" fill-rule="evenodd"></path></g></svg>